<svg xmlns="http://www.w3.org/2000/svg" version="1.1" width="800px" height="800px" xlink="http://www.w3.org/1999/xlink" style="overflow:hidden!important;"><g id="svga-group-wrapper" transform="scale(4 4)"><g id="svga-group-backs-single"><path id="SvgjsPath3387" opacity="1" fill="#ecf0f1" stroke-width="none" d="M 225 225 H -25 V -25 h 250 V 225 Z" /><path id="SvgjsPath3388" opacity="1" fill="#c6dce2" stroke-width="none" d="M 100 85 c -8.284 0 -15 6.716 -15 15 s 6.716 15 15 15 s 15 -6.716 15 -15 S 108.284 85 100 85 Z M 100 110 c -5.522 0 -10 -4.478 -10 -10 s 4.478 -10 10 -10 s 10 4.478 10 10 S 105.522 110 100 110 Z M 100 70 c -16.568 0 -30 13.432 -30 30 s 13.432 30 30 30 s 30 -13.432 30 -30 S 116.568 70 100 70 Z M 100 125 c -13.807 0 -25 -11.193 -25 -25 s 11.193 -25 25 -25 s 25 11.193 25 25 S 113.807 125 100 125 Z M 100 55 c -24.853 0 -45 20.147 -45 45 s 20.147 45 45 45 s 45 -20.147 45 -45 S 124.853 55 100 55 Z M 100 140 c -22.091 0 -40 -17.909 -40 -40 s 17.909 -40 40 -40 s 40 17.909 40 40 S 122.091 140 100 140 Z M 100 40 c -33.137 0 -60 26.863 -60 60 s 26.863 60 60 60 s 60 -26.863 60 -60 S 133.137 40 100 40 Z M 100 155 c -30.375 0 -55 -24.625 -55 -55 s 24.625 -55 55 -55 s 55 24.625 55 55 S 130.375 155 100 155 Z M 100 25 c -41.421 0 -75 33.579 -75 75 s 33.579 75 75 75 s 75 -33.579 75 -75 S 141.421 25 100 25 Z M 100 170 c -38.658 0 -70 -31.342 -70 -70 s 31.342 -70 70 -70 s 70 31.342 70 70 S 138.658 170 100 170 Z M 100 10 c -49.705 0 -90 40.295 -90 90 s 40.295 90 90 90 s 90 -40.295 90 -90 S 149.705 10 100 10 Z M 100 184.999 c -46.943 0 -85 -38.057 -85 -84.999 s 38.057 -85.001 85 -85.001 S 185 53.058 185 100 S 146.943 184.999 100 184.999 Z M 100 -5 C 42.011 -5 -5 42.011 -5 100 s 47.011 105 105 105 s 105 -47.011 105 -105 S 157.989 -5 100 -5 Z M 100 199.998 C 44.772 199.998 0 155.226 0 100 C 0 44.773 44.772 -0.001 100 -0.001 S 200 44.773 200 100 C 200 155.226 155.228 199.998 100 199.998 Z M 100 -35 C 25.442 -35 -35 25.442 -35 100 s 60.442 135 135 135 s 135 -60.442 135 -135 S 174.558 -35 100 -35 Z M 100 229.998 c -71.795 0 -130 -58.205 -130 -129.998 c 0 -71.795 58.205 -130.002 130 -130.002 c 71.794 0 130 58.207 130 130.002 C 230 171.793 171.794 229.998 100 229.998 Z M 100 -20 C 33.727 -20 -20 33.727 -20 100 s 53.727 120 120 120 s 120 -53.727 120 -120 S 166.273 -20 100 -20 Z M 100 214.998 C 36.489 214.998 -15 163.51 -15 100 c 0 -63.511 51.489 -115.002 115 -115.002 S 215 36.489 215 100 C 215 163.51 163.511 214.998 100 214.998 Z" /></g><g id="svga-group-subwrapper" ><g id="svga-group-hair-back" ><path id="SvgjsPath3356" opacity="1" fill="#2a232b" stroke-width="none" d="M 100.5 100.5 h -1 v -1 h 1 V 100.5 Z" /></g><g id="svga-group-humanbody-single"><path id="SvgjsPath2890" opacity="1" fill="#f5af95" stroke="none" stroke-width="none" d="M 195.417 199.778 c -2.196 -4.746 -8.195 -11.779 -14.86 -13.722 c -8.239 -2.403 -26.837 -5.308 -33.733 -6.923 c -5.528 -1.296 -16.662 -11.294 -20.564 -14.65 c -0.7 -0.6 -1.273 -1.839 -1.287 -2.76 c -0.139 -10.864 4.195 -39.724 4.195 -39.724 H 100 H 70.833 c 0 0 4.334 28.859 4.193 39.724 c -0.011 0.921 -0.587 2.16 -1.285 2.76 c -3.902 3.356 -15.036 13.354 -20.564 14.65 c -6.897 1.615 -25.495 4.619 -33.733 7.022 c -6.667 1.942 -12.664 8.876 -14.86 13.622 c -3.708 8.008 -4.584 22.5 -4.584 35 h 100 h 100 C 200 222.278 199.123 207.786 195.417 199.778 Z" /><path id="SvgjsPath2891" opacity="1" fill="#ffc9b5" stroke="none" stroke-width="none" d="M 159.156 184.058 c 24.342 3.542 34.586 8.708 37.794 50.721 H 200 c 0 -12.5 -0.877 -26.992 -4.583 -35 c -2.196 -4.746 -8.195 -11.779 -14.86 -13.722 c -8.239 -2.403 -26.837 -5.308 -33.733 -6.923 c -5.528 -1.296 -18.242 -12.069 -21.643 -16.35 c 3.36 4.704 12.791 15.605 21.054 18.46 C 150.188 182.61 153.48 183.232 159.156 184.058 Z M 53.766 181.244 c 8.263 -2.854 17.693 -13.756 21.054 -18.46 c -3.4 4.28 -16.114 15.054 -21.643 16.35 c -6.896 1.615 -25.494 4.619 -33.733 7.022 c -6.665 1.942 -12.664 8.876 -14.86 13.622 c -3.706 8.008 -4.583 22.5 -4.583 35 h 3.05 c 3.188 -41.744 13.475 -47.183 37.794 -50.721 C 46.52 183.232 49.813 182.61 53.766 181.244 Z" /><path id="SvgjsPath2892" opacity="1" fill="#e69375" stroke="none" stroke-width="none" d="M 95.646 197.62 c 0 0 -5.074 -1.609 -7.083 -2.379 c -10.449 -4.009 -44.395 -6.607 -44.395 -6.607 s 35.754 1.419 43.644 2.779 c -0.458 -4.767 -3.017 -20.004 -3.017 -20.004 s 5.149 16.815 6.409 21.057 C 91.878 194.734 95.646 197.62 95.646 197.62 Z M 106.445 196.278 c -0.089 0.073 -0.191 0.168 -0.302 0.268 C 106.256 196.461 106.358 196.372 106.445 196.278 Z M 95.646 197.62 c 0 0 2.893 2.992 4.347 3.03 c 1.91 0.051 4.828 -2.899 6.151 -4.104 c -1.265 0.957 -4.159 1.391 -5.31 1.436 C 99.504 198.033 95.646 197.62 95.646 197.62 Z M 116.664 190.101 c -1.545 0.248 -4.386 0.789 -4.386 0.789 l 2.287 -14.89 c -0.646 3.071 -4.474 16.211 -8.12 20.278 c 1.91 -1.616 6.158 -2.391 8.324 -2.704 c 10.236 -1.484 10.232 -1.483 41.062 -4.94 C 155.831 188.634 126.76 188.479 116.664 190.101 Z" /><path id="SvgjsPath2893" opacity="1" fill="none" stroke="#c7633d" stroke-width="1.5" d="M 195.417 199.778 c -2.196 -4.746 -8.195 -11.779 -14.86 -13.722 c -8.239 -2.403 -26.837 -5.308 -33.733 -6.923 c -5.528 -1.296 -16.662 -11.294 -20.564 -14.65 c -0.7 -0.6 -1.273 -1.839 -1.287 -2.76 c -0.139 -10.864 4.195 -39.724 4.195 -39.724 H 100 H 70.833 c 0 0 4.334 28.859 4.193 39.724 c -0.011 0.921 -0.587 2.16 -1.285 2.76 c -3.902 3.356 -15.036 13.354 -20.564 14.65 c -6.897 1.615 -25.495 4.619 -33.733 7.022 c -6.667 1.942 -12.664 8.876 -14.86 13.622 c -3.708 8.008 -4.584 22.5 -4.584 35 h 100 h 100 C 200 222.278 199.123 207.786 195.417 199.778 Z" /></g><g id="svga-group-chinshadow-single"><path id="SvgjsPath3136" opacity="1" fill="url(#SvgjsLinearGradient3137)" d="M 75.602 162.779 c 7.126 5.302 15.497 9.087 24.401 9.087 c 8.902 0 17.269 -3.781 24.394 -9.08 c -0.104 -0.358 -0.17 -0.718 -0.175 -1.053 c -0.088 -6.862 1.561 -20.607 2.82 -30.025 c -15.654 -1.97 -38.431 -1.97 -54.084 0 c 1.26 9.419 2.908 23.163 2.819 30.024 C 75.773 162.063 75.707 162.42 75.602 162.779 Z" /></g><g id="svga-group-clothes-single" ><path id="SvgjsPath3363" opacity="1" fill="#386e77" stroke-width="none" d="M 204.771 234.683 c -25.073 -0.247 -64.243 -0.011 -96.057 0.107 l 3.764 -34.23 c 0.389 -8.876 4.307 -11.191 6.412 -16.545 c 8.523 -21.672 5.125 -15.237 7.986 -33.135 c 9.692 1.334 17.243 21.017 24.338 23.615 c -0.013 0.428 -0.331 2.404 -0.756 4.897 C 187.119 186.985 200 178.735 204.771 234.683 Z M 93.475 200.708 c -1.059 -3.137 -5.48 -7.747 -7.551 -10.751 c -3.566 -5.185 -6.529 -10.696 -10.881 -23.596 c -0.007 -0.147 -0.702 -11.408 -1.848 -16.205 c -5.765 2.713 -4.729 7.144 -13.599 17.518 c -1.859 2.164 -5.543 2.829 -9.259 5.004 c -0.191 2.096 -0.221 3.92 -0.15 5.647 c -9.297 1.408 -35.372 7.032 -44.861 14.346 c -4.399 10.161 -14.504 29.002 -12.896 42.922 c 28.234 -0.305 71.192 -0.595 107.381 -0.803 c 0 0 1.301 -19.904 -6.86 -34.308 C 93.133 200.552 93.31 200.625 93.475 200.708 Z" /><path id="SvgjsPath3364" opacity="1" fill="#4d7e86" stroke-width="none" d="M 50.767 179.432 c -19.906 5.692 -32.87 9.836 -42.029 15.092 c -4.175 7.794 -11.07 18.835 -14.845 40.267 c -0.052 0.001 -0.968 -0.093 -1.021 -0.093 c 0.093 -17.071 7.793 -30.803 12.432 -41.844 c 10.206 -8.257 32.288 -12.34 44.999 -14.381 C 50.34 178.543 50.731 179.366 50.767 179.432 Z M 150.498 179.568 c 12.711 2.041 31.496 4.167 42.121 10.917 c 7.375 11.125 11.428 26.836 11.521 43.907 c -0.052 0 -0.968 0.094 -1.021 0.093 c -3.774 -21.432 -8.325 -33.206 -12.5 -41 c -9.159 -5.256 -20.679 -7.266 -40.585 -12.958 C 150.07 180.462 150.461 179.639 150.498 179.568 Z" /><path id="SvgjsPath3365" opacity="1" fill="#184f58" stroke-width="none" d="M 119.635 201.16 c -1.72 -0.976 -4.987 -1.16 -7.002 0.596 c 0.596 -1.756 2.792 -3.204 5.675 -3.524 c 9.016 1.769 19.906 13.866 30.706 18.396 C 138.306 214.798 127.818 205.804 119.635 201.16 Z M 93.667 202.167 L 92.479 200 c -2.057 0.038 -6.953 0.482 -9.014 2.309 c -9.292 8.233 -24.119 12.352 -30.718 16.655 C 86.703 209.902 80.203 202.736 93.667 202.167 Z" /><path id="SvgjsPath3366" opacity="1" fill="#265e68" stroke-width="none" d="M 115.619 198.985 c -1.493 0.426 -3.061 1.553 -3.142 1.574 c 0.389 -8.876 4.307 -11.191 6.412 -16.545 c 8.523 -21.672 5.125 -15.237 7.986 -33.135 c 1.941 0.266 3.798 1.415 5.582 3.085 c -1.227 9.5 -3.84 17 -7.646 25.567 c 4.461 -2.522 9.298 -5.611 13.672 -8.026 C 129.391 179.69 118.516 187.081 115.619 198.985 Z M 93.475 200.708 c -1.059 -3.137 -5.48 -7.747 -7.551 -10.751 c -3.566 -5.185 -6.529 -10.696 -10.881 -23.596 c -0.007 -0.147 -0.702 -11.408 -1.848 -16.205 c -3.646 1.714 -3.34 2.955 -5.771 7.11 c 1.958 10.127 5.915 16.565 11.527 24.985 c -4.784 -3.154 -11.462 -8.545 -18.071 -11.847 c 11.134 8.348 21.139 18.74 28.653 29.804 C 91.972 199.465 92.066 200.003 93.475 200.708 Z" /><path id="SvgjsPath3367" opacity="1" fill="#0c4049" stroke-width="none" d="M 193.414 189.487 c -8.551 -5.06 -23.349 -8.462 -42.541 -10.779 c 0.263 -2.481 0.451 -4.26 0.454 -4.287 c -7.108 -2.46 -15.008 -22.473 -24.872 -23.66 c -7.303 44.887 -11.722 29.555 -15.365 49.24 c -0.662 3.579 -2.853 32.529 -2.965 33.917 c -2.574 0.003 -5.149 0.006 -7.725 0.01 c 0.547 -17.962 -6.32 -32.084 -6.74 -32.994 c -0.877 -3.118 -5.549 -7.995 -7.646 -11.038 c -5.437 -7.907 -7.91 -15.09 -10.862 -23.54 c 0 0 -0.482 -11.635 -1.662 -16.356 c -5.941 2.726 -5.056 6.065 -13.979 16.499 c -2.523 2.937 -5.948 4.17 -9.286 6.17 c -0.173 1.899 -0.199 3.705 -0.135 5.452 c -34.277 4.349 -41.74 11.957 -45.889 13.782 c -2.94 9.523 -12.333 23.334 -12.421 43.842 c 29.629 0 34.064 0.401 123.482 0.081 c 13.869 -0.059 27.733 -0.134 41.604 -0.223 c 20.477 -0.12 48.669 0.467 48.669 0.467 C 205.536 214.739 200.869 201.902 193.414 189.487 Z M 117.634 186.921 c 6.985 -13.686 6.985 -16.936 9.68 -35.623 c 8.454 2.822 16.191 20.952 23.12 23.187 c -4.939 25.516 -2.263 35.379 -1.91 41.354 c -2.575 -1.386 -4.559 -2.651 -7.061 -4.148 c -7.721 -4.629 -13.066 -10.239 -21.258 -13.583 c -2.219 -0.936 -5.408 0.459 -7.36 1.894 C 113.922 190.583 115.012 192.058 117.634 186.921 Z M 119.286 198.722 c 0.002 -0.015 0.005 -0.027 0.007 -0.041 C 119.565 198.637 119.409 198.677 119.286 198.722 Z M 112.756 202.773 c 0.389 -1.978 3.374 -3.115 4.863 -3.621 c -1.926 8.558 -4.446 20.08 -4.495 34.762 c -1.249 0.001 -2.499 0.002 -3.749 0.003 C 109.483 232.632 111.173 210.838 112.756 202.773 Z M 98.931 233.931 c -0.79 0.001 -1.579 0.003 -2.369 0.004 c 1.111 -12.801 -5.605 -23.81 -8.693 -33.038 c 0.806 -0.082 3.21 -0.736 3.875 -0.622 C 93.387 201.514 100.999 221.875 98.931 233.931 Z M 60.03 167.448 c 9.546 -10.978 7.557 -13.666 12.843 -16.896 c 0.331 3.15 0.595 6.323 0.761 9.506 c 0.563 11.263 -0.939 3.57 3.492 15.177 c 6.513 17.058 12.336 18.518 15.318 24.367 c -10.575 -0.741 -12.118 7.192 -21.631 10.363 c -8.755 3.447 -6.354 1.844 -18.373 8.736 c 3.358 -23.819 -1.74 -34.836 -1.74 -45.571 C 54.159 171.341 57.48 170.367 60.03 167.448 Z M -6.797 234.569 c 1.667 -20.667 9.704 -34.022 13 -41.333 c 4.645 -2.986 20.026 -10.925 43.921 -14.394 c 0.336 6.598 1.925 12.369 2.053 18.93 c 0.238 6.276 0.213 14.08 -0.253 21.732 c 4.45 -2.042 8.725 -4.477 13.68 -6.258 c 13.805 -5.006 11.434 -6.111 18.043 -10.674 c 1.583 -1.104 1.344 -1.118 2.722 -1.463 c 2.565 7.987 10.662 18.897 8.807 32.827 C 59.931 234.008 24.849 234.226 -6.797 234.569 Z M 114.609 233.914 c -0.317 -12.454 2.644 -23.005 4.664 -35.122 c 4.855 0.064 18.32 13.418 30.146 18.427 c 0.271 -4.209 -0.175 -12.976 -0.175 -22.733 c -0.004 -0.29 0.911 -8.994 1.529 -14.842 c 11.277 3.239 29.571 3.27 41.841 11.982 c 4.922 9.443 10.851 20.048 11.255 42.61 C 175.918 234.002 145.432 233.899 114.609 233.914 Z" /></g><g id="svga-group-head" ><g id="svga-group-ears-left" ><path id="SvgjsPath2903" opacity="1" fill="#f5af95" stroke="#c7633d" stroke-width="1.5" d="M 45.671 84.344 c -1.485 -2.462 -6.327 -9.199 -10.031 -8.254 c -3.012 0.772 -2.973 4.971 -3.206 7.455 c -0.34 3.644 -0.464 9.992 0.525 12.568 c 0.951 2.473 3.96 7.252 5.828 9.075 c 2.299 2.235 5.97 9.358 6.422 10.097 c 0.711 1.168 2.137 2.84 4.325 2.708 c 3.071 -0.185 5.724 -3.087 5.965 -4.485 C 56.8 105.918 49.536 90.75 45.671 84.344 Z" /><path id="SvgjsPath2904" opacity="1" fill="#c7633d" stroke="none" stroke-width="none" d="M 44.2 99.341 c -0.143 -0.563 0.007 -1.513 0.154 -2.429 c 0.133 -0.835 0.258 -1.624 0.182 -2.182 c -0.289 -2.09 -1.915 -6.06 -2.976 -8.212 c -1.223 -2.476 -3.199 -5.595 -5.679 -6.399 c -1.024 -0.333 -1.699 0.065 -2.089 0.468 c -0.288 0.296 -0.353 0.645 -0.259 0.687 c 0.095 0.041 0.307 -0.248 0.617 -0.519 c 0.254 -0.222 -0.508 -0.04 0 0 c -0.205 1.04 -0.865 6.302 -0.41 10.143 c 0.358 3.022 1.05 5.279 1.263 5.617 c 0.031 0.356 0.083 0.705 0.16 1.043 c 1.002 4.41 7.518 10.177 9.034 11.82 c 0.28 0.303 0.574 0.483 0.646 0.409 s -0.101 -0.373 -0.379 -0.678 c -1.498 -1.632 -7.971 -7.381 -8.939 -11.635 c -1.027 -4.514 3.912 -11.207 4.699 -12.623 c 0.401 0.665 0.742 1.303 1.004 1.835 c 0.207 0.417 0.434 0.906 0.67 1.435 c -0.463 0.738 -5.118 6.127 -3.934 10.441 c 0.438 1.591 3.822 3.642 5.131 4.203 c 0.72 0.31 0.99 0.772 1.304 1.306 c 0.364 0.624 0.033 2.229 1.23 2.739 c 0.244 0.104 0.464 0.146 0.659 0.146 c 0.338 0 0.594 -0.13 0.783 -0.284 c 0.02 0.271 0.019 0.619 0.009 0.941 c -0.012 0.418 0.047 0.609 0.148 0.617 c 0.103 0.009 0.21 -0.174 0.223 -0.587 c 0.017 -0.51 0.014 -1.141 -0.077 -1.444 c -0.269 -0.889 -1.088 -1.894 -1.957 -2.957 C 44.563 102.197 44.422 100.213 44.2 99.341 Z M 34.969 95.432 c -2.348 -6.923 1.283 -13.229 1.81 -14.179 c 1.012 0.399 2.562 2.193 3.221 3.235 C 39.52 85.321 35.067 90.775 34.969 95.432 Z M 45.772 106.464 c -1.084 -0.462 -0.706 -1.984 -1.056 -2.584 c -0.318 -0.542 -0.646 -1.102 -1.479 -1.46 c -0.18 -0.078 -0.379 -0.196 -0.583 -0.332 c -2.682 -6.075 0.293 -8.73 1.039 -9.273 c 0.229 0.742 0.399 1.423 0.476 1.97 c 0.068 0.5 -0.059 1.298 -0.181 2.068 c -0.153 0.955 -0.31 1.944 -0.147 2.584 c 0.244 0.953 0.411 2.97 1.291 4.048 c 0.781 0.956 1.583 1.942 1.857 2.746 C 46.871 106.391 46.5 106.775 45.772 106.464 Z" /></g><g id="svga-group-ears-right" ><path id="SvgjsPath2905" opacity="1" fill="#f5af95" stroke="#c7633d" stroke-width="1.5" d="M 154.066 84.344 c 1.486 -2.462 6.328 -9.199 10.031 -8.254 c 3.012 0.772 2.973 4.971 3.207 7.455 c 0.34 3.644 0.463 9.992 -0.525 12.568 c -0.951 2.473 -3.961 7.252 -5.828 9.075 c -2.299 2.235 -5.971 9.358 -6.422 10.097 c -0.711 1.168 -2.137 2.84 -4.326 2.708 c -3.07 -0.185 -5.723 -3.087 -5.965 -4.485 C 142.938 105.918 150.203 90.75 154.066 84.344 Z" /><path id="SvgjsPath2906" opacity="1" fill="#c7633d" stroke="none" stroke-width="none" d="M 154.322 103.243 c -0.869 1.063 -1.688 2.068 -1.957 2.957 c -0.092 0.304 -0.094 0.935 -0.078 1.444 c 0.014 0.413 0.121 0.596 0.225 0.587 c 0.102 -0.008 0.16 -0.199 0.148 -0.617 c -0.01 -0.322 -0.012 -0.67 0.008 -0.941 c 0.189 0.154 0.445 0.284 0.783 0.284 c 0.195 0 0.416 -0.042 0.66 -0.146 c 1.195 -0.511 0.865 -2.116 1.229 -2.739 c 0.314 -0.534 0.584 -0.997 1.305 -1.306 c 1.309 -0.561 4.693 -2.611 5.131 -4.203 c 1.184 -4.314 -3.471 -9.704 -3.934 -10.441 c 0.234 -0.529 0.463 -1.018 0.668 -1.435 c 0.264 -0.532 0.604 -1.171 1.006 -1.835 c 0.787 1.416 5.725 8.108 4.699 12.623 c -0.969 4.254 -7.441 10.003 -8.939 11.635 c -0.279 0.305 -0.453 0.604 -0.381 0.678 c 0.074 0.074 0.367 -0.106 0.646 -0.409 c 1.516 -1.643 8.031 -7.41 9.033 -11.82 c 0.078 -0.338 0.131 -0.687 0.162 -1.043 c 0.211 -0.337 0.904 -2.594 1.262 -5.617 c 0.455 -3.841 -0.205 -9.103 -0.41 -10.143 c 0.508 -0.04 -0.254 -0.222 0 0 c 0.311 0.271 0.523 0.56 0.617 0.519 c 0.094 -0.042 0.029 -0.39 -0.258 -0.687 c -0.391 -0.403 -1.066 -0.801 -2.09 -0.468 c -2.48 0.804 -4.457 3.923 -5.68 6.399 c -1.061 2.152 -2.686 6.122 -2.975 8.212 c -0.076 0.558 0.049 1.347 0.182 2.182 c 0.146 0.916 0.297 1.866 0.154 2.429 C 155.316 100.213 155.176 102.197 154.322 103.243 Z M 159.738 84.488 c 0.66 -1.042 2.209 -2.835 3.221 -3.235 c 0.527 0.95 4.158 7.256 1.811 14.179 C 164.672 90.775 160.219 85.321 159.738 84.488 Z M 152.75 106.229 c 0.273 -0.804 1.076 -1.79 1.857 -2.746 c 0.879 -1.078 1.047 -3.095 1.291 -4.048 c 0.162 -0.64 0.006 -1.629 -0.146 -2.584 c -0.123 -0.77 -0.25 -1.568 -0.182 -2.068 c 0.076 -0.547 0.246 -1.228 0.475 -1.97 c 0.746 0.543 3.721 3.199 1.039 9.273 c -0.203 0.136 -0.402 0.254 -0.584 0.332 c -0.832 0.358 -1.16 0.918 -1.479 1.46 c -0.35 0.6 0.029 2.123 -1.055 2.584 C 153.238 106.775 152.867 106.391 152.75 106.229 Z" /></g><g id="svga-group-faceshape-wrap" ><g id="svga-group-faceshape-single" ><path id="SvgjsPath3133" opacity="1" fill="#f5af95" stroke-width="none" d="M 100.002 0.867 C 66.381 0.813 39.186 28.343 39.134 62.366 c -0.008 5.403 0.669 10.645 1.953 15.641 l 0.004 0 c 0.011 0.054 8.713 39.241 14.519 51.175 c 6.073 12.487 23.814 32.685 44.392 32.685 c 20.582 0 38.32 -20.197 44.392 -32.685 c 5.805 -11.935 14.507 -51.122 14.519 -51.175 l 0.005 0 c 1.283 -4.997 1.961 -10.238 1.952 -15.641 C 160.819 28.343 133.623 0.813 100.002 0.867 Z" /><path id="SvgjsPath3134" opacity="1" fill="#eda184" stroke-width="none" d="M 120.754 4.512 c 21.441 9.489 36.411 31.135 36.45 56.363 c 0.008 5.403 -0.669 10.645 -1.953 15.641 l -0.005 0 c -0.011 0.054 -8.713 39.24 -14.519 51.177 c -5.709 11.738 -21.608 32.469 -40.725 32.469 s -35.016 -20.73 -40.725 -32.469 c -5.806 -11.937 -14.507 -51.123 -14.519 -51.177 l -0.004 0 c -1.284 -4.997 -1.962 -10.238 -1.953 -15.641 c 0.038 -25.229 15.008 -46.874 36.45 -56.363 c -23.386 8.55 -40.076 31.208 -40.117 57.854 c -0.008 5.403 0.669 10.645 1.953 15.641 l 0.004 0 c 0.011 0.054 8.713 39.241 14.519 51.175 c 6.073 12.487 23.814 32.685 44.392 32.685 c 20.579 0 38.319 -20.197 44.392 -32.685 c 5.805 -11.935 14.507 -51.122 14.519 -51.175 l 0.005 0 c 1.283 -4.997 1.961 -10.238 1.952 -15.641 C 160.83 35.72 144.14 13.062 120.754 4.512 Z" /><path id="SvgjsPath3135" opacity="1" fill="none" stroke="#c7633d" stroke-width="1.5" d="M 100.002 0.867 C 66.381 0.813 39.186 28.343 39.134 62.366 c -0.008 5.403 0.669 10.645 1.953 15.641 l 0.004 0 c 0.011 0.054 8.713 39.241 14.519 51.175 c 6.073 12.487 23.814 32.685 44.392 32.685 c 20.582 0 38.32 -20.197 44.392 -32.685 c 5.805 -11.935 14.507 -51.122 14.519 -51.175 l 0.005 0 c 1.283 -4.997 1.961 -10.238 1.952 -15.641 C 160.819 28.343 133.623 0.813 100.002 0.867 Z" /></g></g><g id="svga-group-mouth-single" ><path id="SvgjsPath3063" opacity="1" fill="url(#SvgjsLinearGradient3064)" d="M 100.2 142.947 c -2.832 0.144 -3.644 -2.753 -3.644 -2.753 s 3.931 0.565 6.991 -0.353 C 103.548 139.842 102.692 142.822 100.2 142.947 Z" /><path id="SvgjsPath3067" opacity="1" fill="#c7633d" stroke-width="none" d="M 100.488 140.76 c -1.984 0.1 -3.765 -0.077 -3.877 -0.089 c -0.138 -0.014 -0.238 -0.136 -0.224 -0.272 c 0.015 -0.138 0.143 -0.233 0.274 -0.224 c 0.041 0.003 4.096 0.405 6.738 -0.337 c 0.131 -0.032 0.271 0.041 0.309 0.174 s -0.04 0.27 -0.173 0.308 C 102.601 140.582 101.517 140.708 100.488 140.76 Z" /><path id="SvgjsPath3068" opacity="1" fill="#ffffff" stroke-width="none" d="M 82.5 130.299 c 0 0 12.532 1.486 16.718 1.499 c 4.553 0.012 19.282 -1.499 19.282 -1.499 c -4.258 3.534 -8.943 6.932 -19.555 6.999 C 89.453 137.359 87.021 133.912 82.5 130.299 Z" /><path id="SvgjsPath3069" opacity="1" fill="none" stroke="#c7633d" stroke-width="0.75" d="M 82.5 130.299 c 0 0 12.532 1.486 16.718 1.499 c 4.553 0.012 19.282 -1.499 19.282 -1.499 c -4.258 3.534 -8.943 6.932 -19.555 6.999 C 89.453 137.359 87.021 133.912 82.5 130.299 Z" /></g><g id="svga-group-eyes-left" ><g id="svga-group-eyesback-left"><path id="SvgjsPath2909" opacity="1" fill="url(#SvgjsRadialGradient2910)" d="M 61.752 82.523 c -0.506 -2.285 5.191 -3.973 12.711 -3.051 c 7.518 0.923 12.738 5.524 12.052 7.844 c -0.38 1.286 -10.639 3.245 -14.253 2.847 C 68.598 89.758 62.974 88.04 61.752 82.523 Z" /></g><g id="svga-group-eyesiriswrapper-left" transform="translate(0.25 0.25)"><g id="svga-group-eyesiriscontrol-left" ><g id="svga-group-eyesiris-left" ><path id="SvgjsPath2923" opacity="1" fill="#4e60a3" stroke-width="none" d="M 80 84 c 0 3.313 -2.687 6 -6 6 c -3.313 0 -6 -2.687 -6 -6 l 0 0 c 0 -3.314 2.687 -6 6 -6 C 77.313 77.999 80 80.686 80 84 L 80 84 Z" /><path id="SvgjsPath2924" opacity="0.7" fill="url(#SvgjsRadialGradient2925)" d="M 73.328 78.066 c -0.023 0.003 -0.047 0.006 -0.071 0.009 c 0.029 0.135 0.057 0.271 0.085 0.406 C 73.336 78.344 73.333 78.204 73.328 78.066 Z M 73.341 78.48 c 0.07 1.972 0.185 3.729 0.517 4.364 C 74.033 82.148 73.735 80.414 73.341 78.48 Z M 73.859 82.845 c -0.043 0.167 -0.108 0.281 -0.208 0.319 c -0.1 0.038 -0.226 -0.006 -0.368 -0.103 c 0.041 0.167 0.037 0.297 -0.036 0.378 c -0.072 0.081 -0.201 0.101 -0.373 0.078 c 0.113 0.13 0.171 0.249 0.146 0.353 c -0.027 0.104 -0.134 0.182 -0.293 0.242 c 0.159 0.063 0.266 0.141 0.291 0.245 c 0.025 0.104 -0.033 0.223 -0.145 0.352 c 0.17 -0.021 0.301 0.001 0.371 0.082 c 0.071 0.081 0.075 0.212 0.035 0.379 c 0.141 -0.097 0.265 -0.139 0.365 -0.1 c 0.101 0.038 0.166 0.152 0.206 0.32 c 0.081 -0.152 0.171 -0.249 0.28 -0.26 c 0.104 -0.014 0.216 0.059 0.329 0.188 c 0.001 -0.172 0.037 -0.299 0.127 -0.36 c 0.088 -0.061 0.219 -0.049 0.379 0.013 c -0.078 -0.152 -0.105 -0.281 -0.055 -0.377 c 0.05 -0.095 0.173 -0.146 0.344 -0.166 c -0.141 -0.099 -0.227 -0.2 -0.225 -0.308 c 0 -0.108 0.084 -0.209 0.227 -0.306 c -0.17 -0.021 -0.291 -0.072 -0.342 -0.167 c -0.049 -0.095 -0.022 -0.225 0.058 -0.377 c -0.162 0.06 -0.292 0.072 -0.38 0.011 c -0.089 -0.061 -0.125 -0.188 -0.125 -0.36 c -0.112 0.128 -0.224 0.199 -0.33 0.185 C 74.029 83.092 73.938 82.998 73.859 82.845 Z M 74.466 82.92 c 0.479 -0.535 1.021 -2.209 1.57 -4.104 C 75.182 80.593 74.467 82.202 74.466 82.92 Z M 76.035 78.816 c 0.06 -0.122 0.121 -0.246 0.178 -0.37 c -0.021 -0.007 -0.042 -0.017 -0.063 -0.026 C 76.112 78.553 76.074 78.686 76.035 78.816 Z M 74.972 83.27 c 0.672 -0.252 1.931 -1.483 3.297 -2.905 C 76.688 81.541 75.306 82.634 74.972 83.27 Z M 78.269 80.365 c 0.1 -0.075 0.203 -0.15 0.305 -0.225 c -0.014 -0.018 -0.03 -0.033 -0.042 -0.049 C 78.445 80.181 78.358 80.274 78.269 80.365 Z M 75.254 83.814 c 0.713 0.088 2.4 -0.417 4.272 -1.041 C 77.578 83.081 75.848 83.406 75.254 83.814 Z M 79.526 82.774 c 0.11 -0.016 0.225 -0.034 0.337 -0.052 c -0.004 -0.019 -0.009 -0.038 -0.014 -0.057 C 79.742 82.701 79.632 82.738 79.526 82.774 Z M 75.253 84.427 c 0.59 0.412 2.318 0.747 4.262 1.063 C 77.65 84.857 75.967 84.342 75.253 84.427 Z M 79.516 85.49 c 0.095 0.033 0.191 0.067 0.285 0.098 c 0.005 -0.017 0.009 -0.033 0.012 -0.05 C 79.716 85.523 79.615 85.507 79.516 85.49 Z M 74.965 84.97 c 0.333 0.637 1.708 1.738 3.282 2.924 C 76.888 86.464 75.638 85.226 74.965 84.97 Z M 78.248 87.892 c 0.059 0.062 0.12 0.126 0.179 0.189 c 0.01 -0.012 0.019 -0.021 0.03 -0.032 C 78.387 87.997 78.315 87.944 78.248 87.892 Z M 74.46 85.317 c -0.003 0.719 0.703 2.331 1.547 4.113 C 75.468 87.533 74.937 85.855 74.46 85.317 Z M 76.007 89.431 c 0.021 0.075 0.043 0.152 0.063 0.229 c 0.015 -0.006 0.025 -0.01 0.039 -0.014 C 76.076 89.574 76.041 89.5 76.007 89.431 Z M 73.851 85.389 c -0.336 0.637 -0.461 2.39 -0.542 4.361 C 73.713 87.82 74.022 86.087 73.851 85.389 Z M 73.309 89.75 c -0.017 0.075 -0.031 0.151 -0.047 0.228 c 0.014 0.003 0.025 0.003 0.039 0.005 C 73.303 89.906 73.307 89.826 73.309 89.75 Z M 73.28 85.169 c -0.596 0.407 -1.521 1.904 -2.508 3.61 C 72.026 87.259 73.106 85.867 73.28 85.169 Z M 70.772 88.779 c -0.053 0.063 -0.108 0.13 -0.162 0.193 c 0.013 0.008 0.024 0.014 0.038 0.024 C 70.688 88.924 70.731 88.851 70.772 88.779 Z M 72.875 84.71 c -0.716 0.083 -2.231 0.978 -3.898 2.029 C 70.795 85.977 72.395 85.248 72.875 84.71 Z M 68.976 86.741 c -0.086 0.036 -0.174 0.072 -0.263 0.11 c 0.006 0.013 0.015 0.027 0.023 0.04 C 68.817 86.842 68.897 86.791 68.976 86.741 Z M 72.728 84.113 c -0.671 -0.257 -2.429 -0.168 -4.395 -0.011 C 70.297 84.27 72.055 84.367 72.728 84.113 Z M 68.333 84.102 c -0.107 -0.01 -0.217 -0.02 -0.323 -0.029 c 0 0.019 -0.002 0.038 0 0.056 C 68.119 84.119 68.228 84.11 68.333 84.102 Z M 72.875 83.519 c -0.473 -0.539 -2.069 -1.277 -3.881 -2.051 C 70.653 82.528 72.163 83.432 72.875 83.519 Z M 68.994 81.468 c -0.104 -0.067 -0.209 -0.134 -0.315 -0.201 c -0.009 0.019 -0.019 0.038 -0.029 0.055 C 68.766 81.371 68.882 81.419 68.994 81.468 Z M 73.284 83.061 c -0.169 -0.698 -1.241 -2.094 -2.485 -3.623 C 71.775 81.15 72.692 82.651 73.284 83.061 Z M 70.799 79.438 c -0.067 -0.115 -0.132 -0.232 -0.199 -0.349 c -0.019 0.013 -0.039 0.026 -0.056 0.039 C 70.628 79.231 70.716 79.335 70.799 79.438 Z" /><path id="SvgjsPath2928" opacity="0.4" fill="url(#SvgjsRadialGradient2929)" d="M 74.886 78.086 c -0.024 -0.003 -0.047 -0.007 -0.07 -0.01 c -0.007 0.138 -0.016 0.277 -0.024 0.414 C 74.822 78.356 74.855 78.22 74.886 78.086 Z M 74.791 78.489 c -0.442 1.922 -0.787 3.649 -0.629 4.35 C 74.511 82.211 74.671 80.459 74.791 78.489 Z M 74.161 82.839 c -0.084 0.15 -0.176 0.243 -0.283 0.254 c -0.106 0.01 -0.216 -0.064 -0.327 -0.195 c -0.004 0.171 -0.042 0.297 -0.133 0.356 c -0.09 0.059 -0.221 0.045 -0.38 -0.021 c 0.076 0.155 0.101 0.285 0.049 0.378 c -0.053 0.094 -0.176 0.142 -0.345 0.158 c 0.137 0.101 0.22 0.204 0.217 0.312 c -0.002 0.107 -0.089 0.207 -0.231 0.302 c 0.169 0.024 0.29 0.079 0.337 0.174 c 0.048 0.096 0.018 0.225 -0.064 0.375 c 0.161 -0.057 0.292 -0.065 0.379 -0.002 c 0.087 0.063 0.12 0.19 0.116 0.363 c 0.117 -0.125 0.229 -0.196 0.337 -0.179 c 0.105 0.014 0.194 0.113 0.27 0.268 c 0.045 -0.167 0.113 -0.279 0.216 -0.315 c 0.101 -0.036 0.225 0.01 0.363 0.111 c -0.036 -0.167 -0.029 -0.299 0.044 -0.378 c 0.073 -0.079 0.205 -0.096 0.376 -0.072 c -0.111 -0.132 -0.168 -0.251 -0.138 -0.355 c 0.028 -0.104 0.136 -0.18 0.299 -0.237 c -0.16 -0.064 -0.263 -0.145 -0.288 -0.25 c -0.023 -0.105 0.037 -0.223 0.154 -0.349 c -0.172 0.016 -0.301 -0.006 -0.37 -0.088 c -0.07 -0.082 -0.072 -0.214 -0.028 -0.379 c -0.142 0.094 -0.268 0.134 -0.367 0.093 C 74.261 83.122 74.199 83.007 74.161 82.839 Z M 74.729 83.07 c 0.601 -0.394 1.557 -1.871 2.578 -3.558 C 76.022 81.007 74.916 82.375 74.729 83.07 Z M 77.307 79.511 c 0.089 -0.102 0.18 -0.206 0.268 -0.311 c -0.019 -0.013 -0.036 -0.028 -0.055 -0.042 C 77.449 79.277 77.378 79.396 77.307 79.511 Z M 75.127 83.538 c 0.715 -0.07 2.25 -0.934 3.937 -1.953 C 77.231 82.312 75.614 83.01 75.127 83.538 Z M 79.063 81.584 c 0.117 -0.046 0.235 -0.092 0.354 -0.138 c -0.01 -0.021 -0.021 -0.04 -0.028 -0.059 C 79.281 81.453 79.173 81.52 79.063 81.584 Z M 75.259 84.137 c 0.666 0.27 2.426 0.218 4.395 0.101 C 77.693 84.03 75.938 83.896 75.259 84.137 Z M 79.654 84.237 c 0.112 0.013 0.226 0.025 0.339 0.037 c 0 -0.02 0.001 -0.039 0.002 -0.058 C 79.881 84.223 79.766 84.23 79.654 84.237 Z M 75.1 84.729 c 0.462 0.551 2.046 1.321 3.842 2.129 C 77.303 85.763 75.811 84.831 75.1 84.729 Z M 78.941 86.858 c 0.083 0.057 0.167 0.114 0.25 0.168 c 0.009 -0.015 0.017 -0.03 0.025 -0.045 C 79.126 86.942 79.032 86.9 78.941 86.858 Z M 74.68 85.179 c 0.156 0.701 1.2 2.12 2.414 3.674 C 76.151 87.119 75.264 85.599 74.68 85.179 Z M 77.094 88.85 c 0.042 0.075 0.083 0.153 0.125 0.229 c 0.012 -0.009 0.024 -0.016 0.037 -0.024 C 77.202 88.987 77.147 88.917 77.094 88.85 Z M 74.103 85.383 c -0.188 0.693 0.076 2.433 0.43 4.373 C 74.502 87.784 74.424 86.026 74.103 85.383 Z M 74.532 89.756 c 0.001 0.078 0.003 0.158 0.003 0.238 c 0.014 -0.002 0.027 -0.004 0.041 -0.004 C 74.562 89.913 74.547 89.833 74.532 89.756 Z M 73.496 85.294 c -0.49 0.528 -1.064 2.189 -1.652 4.072 C 72.733 87.607 73.481 86.013 73.496 85.294 Z M 71.843 89.366 c -0.035 0.068 -0.07 0.138 -0.104 0.208 c 0.012 0.006 0.023 0.009 0.036 0.015 C 71.797 89.516 71.821 89.439 71.843 89.366 Z M 73 84.934 c -0.68 0.239 -1.962 1.446 -3.357 2.838 C 71.25 86.628 72.652 85.563 73 84.934 Z M 69.644 87.772 c -0.067 0.047 -0.137 0.098 -0.205 0.145 c 0.01 0.011 0.02 0.02 0.029 0.032 C 69.525 87.89 69.585 87.832 69.644 87.772 Z M 72.728 84.385 c -0.713 -0.104 -2.407 0.368 -4.291 0.952 C 70.392 85.071 72.125 84.781 72.728 84.385 Z M 68.437 85.339 c -0.092 0.013 -0.187 0.024 -0.283 0.039 c 0.003 0.015 0.008 0.03 0.013 0.044 C 68.258 85.396 68.348 85.366 68.437 85.339 Z M 72.741 83.772 c -0.582 -0.423 -2.303 -0.792 -4.242 -1.149 C 70.353 83.294 72.025 83.843 72.741 83.772 Z M 68.499 82.623 c -0.101 -0.037 -0.205 -0.075 -0.305 -0.112 c -0.005 0.019 -0.011 0.037 -0.015 0.054 C 68.288 82.584 68.395 82.604 68.499 82.623 Z M 73.038 83.235 c -0.318 -0.643 -1.668 -1.769 -3.219 -2.986 C 71.147 81.704 72.372 82.968 73.038 83.235 Z M 69.818 80.25 c -0.083 -0.091 -0.167 -0.183 -0.251 -0.275 c -0.014 0.016 -0.029 0.031 -0.042 0.046 C 69.624 80.097 69.723 80.173 69.818 80.25 Z M 73.551 82.899 c 0.017 -0.718 -0.656 -2.344 -1.464 -4.142 C 72.587 80.663 73.085 82.35 73.551 82.899 Z M 72.087 78.757 c -0.034 -0.128 -0.067 -0.259 -0.101 -0.389 c -0.021 0.007 -0.043 0.015 -0.063 0.023 C 71.977 78.513 72.033 78.636 72.087 78.757 Z" /><path id="SvgjsPath2932" opacity="1" fill="#4e60a3" stroke-width="none" d="M 76.354 84 c 0 1.3 -1.053 2.353 -2.353 2.353 c -1.299 0 -2.354 -1.053 -2.354 -2.353 c 0 -1.299 1.055 -2.354 2.354 -2.354 C 75.301 81.646 76.354 82.7 76.354 84 Z" /><path id="SvgjsPath2933" opacity="0.9" fill="#000000" stroke-width="none" d="M 76.354 84 c 0 1.3 -1.053 2.353 -2.353 2.353 c -1.299 0 -2.354 -1.053 -2.354 -2.353 c 0 -1.299 1.055 -2.354 2.354 -2.354 C 75.301 81.646 76.354 82.7 76.354 84 Z" /><path id="SvgjsPath2934" opacity="0.5" fill="url(#SvgjsLinearGradient2935)" d="M 70.717 86.748 c 0.449 -0.302 1.059 -0.18 1.36 0.268 c 0.301 0.449 0.182 1.059 -0.268 1.36 c -0.45 0.303 -1.059 0.183 -1.36 -0.267 C 70.148 87.66 70.268 87.049 70.717 86.748 L 70.717 86.748 Z" /><path id="SvgjsPath2938" opacity="0.5" fill="url(#SvgjsLinearGradient2939)" d="M 75.86 83.672 c -0.251 0.374 -0.969 0.331 -1.606 -0.096 c -0.638 -0.427 -0.95 -1.078 -0.7 -1.451 l 0 -0.001 c 0.25 -0.374 0.969 -0.331 1.605 0.097 C 75.798 82.647 76.11 83.297 75.86 83.672 C 75.86 83.672 75.86 83.672 75.86 83.672 Z" /><path id="SvgjsPath2942" opacity="0.75" fill="url(#SvgjsLinearGradient2943)" d="M 78.716 82.673 c -0.568 0.873 -2.036 0.925 -3.275 0.117 c -1.24 -0.808 -1.784 -2.17 -1.215 -3.043 c 0.568 -0.872 2.036 -0.924 3.275 -0.117 C 78.74 80.439 79.284 81.802 78.716 82.673 L 78.716 82.673 Z" /></g></g></g><g id="svga-group-eyesfront-left"><path id="SvgjsPath2977" opacity="1" fill="#f5af95" stroke="none" stroke-width="none" d="M 53.294 83 c 0.809 10.899 11.637 23.583 20.506 22.236 c 10.498 0.106 20.864 -7.868 20.864 -22.305 s -5.087 -26.528 -21.127 -26.528 C 62.037 56.402 53.294 68.563 53.294 83 Z M 61.752 82.523 c -0.506 -2.285 5.191 -3.973 12.711 -3.051 c 7.518 0.923 12.738 5.524 12.052 7.844 c -0.38 1.286 -10.639 3.245 -14.253 2.847 C 68.598 89.758 62.974 88.04 61.752 82.523 Z" /><path id="SvgjsPath2978" opacity="1" fill="url(#SvgjsRadialGradient2979)" d="M 72.262 90.163 c 3.614 0.398 13.873 -1.561 14.253 -2.847 c 0.687 -2.32 -4.534 -6.921 -12.052 -7.844 C 68.003 78.68 62.9 79.816 61.907 81.6 c 0.898 -6.4 7.7 -11.397 15.987 -11.434 c 8.911 -0.037 16.148 5.676 16.172 12.765 c 0.021 7.088 -7.185 12.862 -16.095 12.902 c -8.913 0.037 -16.149 -5.676 -16.173 -12.764 c 0 -0.105 0.016 -0.208 0.019 -0.313 C 63.147 88.083 68.651 89.764 72.262 90.163 Z" /><path id="SvgjsPath2983" opacity="1" fill="url(#SvgjsRadialGradient2984)" d="M 61.752 82.523 c -0.506 -2.285 5.191 -3.973 12.711 -3.051 c 7.518 0.923 12.738 5.524 12.052 7.844 c -0.38 1.286 -10.639 3.245 -14.253 2.847 C 68.598 89.758 62.974 88.04 61.752 82.523 Z" /><path id="SvgjsPath2987" opacity="1" fill="#c7633d" stroke="none" stroke-width="none" d="M 62.148 77.417 c 4.208 -1.978 9.35 -2.16 13.838 -1.005 c 2.404 0.561 4.965 1.285 7.063 2.638 c 1.945 1.135 3.525 2.5 5.002 4.19 c -1.342 -1.701 -2.773 -3.118 -4.623 -4.27 c -2.276 -1.416 -4.769 -2.294 -7.364 -2.916 C 71.478 74.928 66.342 75.184 62.148 77.417 Z" /><path id="SvgjsPath2988" opacity="1" fill="#000000" stroke="none" stroke-width="none" d="M 62.769 78.02 c 0.88 -0.352 4.065 -1 5.456 -1.066 c 1.687 -0.082 5.073 0.125 6.735 0.424 c 3.374 0.608 9.251 2.483 11.678 7.184 c 0.746 1.445 0.074 2.456 -0.123 2.675 c 0.3 -2.426 -4.838 -6.746 -12.052 -7.604 c -7.52 -0.894 -13.217 0.743 -12.711 2.958 c 1.222 5.348 6.846 7.013 10.51 7.405 c 4.099 0.439 11.684 -1.539 12.686 -1.753 c -1.999 1.009 -7.524 2.095 -9.767 2.303 c -0.744 0.07 -2.24 0.104 -2.986 0.085 c -5.949 -0.158 -10.169 -3.175 -11.729 -7.26 C 59.464 80.745 60.56 78.902 62.769 78.02 Z" /></g></g><g id="svga-group-eyes-right" ><g id="svga-group-eyesback-right"><path id="SvgjsPath2916" opacity="1" fill="url(#SvgjsRadialGradient2917)" d="M 137.849 82.523 c 0.506 -2.285 -5.191 -3.973 -12.711 -3.051 c -7.518 0.923 -12.738 5.524 -12.052 7.844 c 0.38 1.286 10.639 3.245 14.253 2.847 C 131.003 89.758 136.627 88.04 137.849 82.523 Z" /></g><g id="svga-group-eyesiriswrapper-right" transform="translate(-0.25 0.25)"><g id="svga-group-eyesiriscontrol-right" ><g id="svga-group-eyesiris-right" ><path id="SvgjsPath2946" opacity="1" fill="#4e60a3" stroke-width="none" d="M 132 84 c 0 3.313 -2.687 6 -5.999 6 c -3.313 0 -6.001 -2.687 -6.001 -6 l 0 0 c 0 -3.314 2.688 -6 6.001 -6 C 129.313 77.999 132 80.686 132 84 L 132 84 Z" /><path id="SvgjsPath2947" opacity="0.7" fill="url(#SvgjsRadialGradient2948)" d="M 125.328 78.066 c -0.023 0.003 -0.047 0.006 -0.071 0.009 c 0.029 0.135 0.058 0.271 0.085 0.406 C 125.336 78.344 125.333 78.204 125.328 78.066 Z M 125.341 78.48 c 0.069 1.972 0.185 3.729 0.518 4.364 C 126.033 82.148 125.735 80.414 125.341 78.48 Z M 125.858 82.845 c -0.042 0.167 -0.108 0.281 -0.207 0.319 c -0.101 0.038 -0.226 -0.006 -0.367 -0.103 c 0.04 0.167 0.036 0.297 -0.036 0.378 c -0.072 0.081 -0.201 0.101 -0.372 0.078 c 0.112 0.13 0.171 0.249 0.146 0.353 c -0.028 0.104 -0.134 0.182 -0.293 0.242 c 0.158 0.063 0.265 0.141 0.29 0.245 c 0.025 0.104 -0.032 0.223 -0.145 0.352 c 0.17 -0.021 0.3 0.001 0.37 0.082 c 0.071 0.081 0.075 0.212 0.035 0.379 c 0.141 -0.097 0.266 -0.139 0.365 -0.1 c 0.102 0.038 0.166 0.152 0.206 0.32 c 0.08 -0.152 0.172 -0.249 0.279 -0.26 c 0.105 -0.014 0.217 0.059 0.329 0.188 c 0.002 -0.172 0.037 -0.299 0.128 -0.36 c 0.087 -0.061 0.219 -0.049 0.379 0.013 c -0.078 -0.152 -0.104 -0.281 -0.056 -0.377 c 0.051 -0.095 0.174 -0.146 0.345 -0.166 c -0.141 -0.099 -0.228 -0.2 -0.225 -0.308 c -0.001 -0.108 0.084 -0.209 0.227 -0.306 c -0.171 -0.021 -0.291 -0.072 -0.342 -0.167 c -0.05 -0.095 -0.022 -0.225 0.057 -0.377 c -0.161 0.06 -0.291 0.072 -0.38 0.011 s -0.124 -0.188 -0.125 -0.36 c -0.111 0.128 -0.224 0.199 -0.33 0.185 C 126.029 83.092 125.938 82.998 125.858 82.845 Z M 126.466 82.92 c 0.479 -0.535 1.021 -2.209 1.569 -4.104 C 127.182 80.593 126.468 82.202 126.466 82.92 Z M 128.035 78.816 c 0.06 -0.122 0.121 -0.246 0.179 -0.37 c -0.021 -0.007 -0.042 -0.017 -0.063 -0.026 C 128.112 78.553 128.074 78.686 128.035 78.816 Z M 126.972 83.27 c 0.673 -0.252 1.932 -1.483 3.298 -2.905 C 128.688 81.541 127.307 82.634 126.972 83.27 Z M 130.27 80.365 c 0.1 -0.075 0.202 -0.15 0.305 -0.225 c -0.015 -0.018 -0.03 -0.033 -0.042 -0.049 C 130.445 80.181 130.358 80.274 130.27 80.365 Z M 127.255 83.814 c 0.713 0.088 2.399 -0.417 4.271 -1.041 C 129.578 83.081 127.848 83.406 127.255 83.814 Z M 131.526 82.774 c 0.11 -0.016 0.225 -0.034 0.337 -0.052 c -0.005 -0.019 -0.009 -0.038 -0.014 -0.057 C 131.742 82.701 131.632 82.738 131.526 82.774 Z M 127.253 84.427 c 0.591 0.412 2.318 0.747 4.263 1.063 C 129.65 84.857 127.967 84.342 127.253 84.427 Z M 131.516 85.49 c 0.095 0.033 0.19 0.067 0.285 0.098 c 0.005 -0.017 0.009 -0.033 0.013 -0.05 C 131.716 85.523 131.614 85.507 131.516 85.49 Z M 126.965 84.97 c 0.332 0.637 1.708 1.738 3.282 2.924 C 128.889 86.464 127.638 85.226 126.965 84.97 Z M 130.248 87.892 c 0.059 0.062 0.119 0.126 0.178 0.189 c 0.01 -0.012 0.02 -0.021 0.031 -0.032 C 130.387 87.997 130.315 87.944 130.248 87.892 Z M 126.461 85.317 c -0.003 0.719 0.702 2.331 1.547 4.113 C 127.468 87.533 126.937 85.855 126.461 85.317 Z M 128.008 89.431 c 0.021 0.075 0.043 0.152 0.063 0.229 c 0.015 -0.006 0.026 -0.01 0.039 -0.014 C 128.076 89.574 128.041 89.5 128.008 89.431 Z M 125.851 85.389 c -0.336 0.637 -0.461 2.39 -0.542 4.361 C 125.713 87.82 126.022 86.087 125.851 85.389 Z M 125.309 89.75 c -0.017 0.075 -0.031 0.151 -0.047 0.228 c 0.014 0.003 0.024 0.003 0.039 0.005 C 125.303 89.906 125.307 89.826 125.309 89.75 Z M 125.279 85.169 c -0.596 0.407 -1.521 1.904 -2.508 3.61 C 124.026 87.259 125.105 85.867 125.279 85.169 Z M 122.771 88.779 c -0.052 0.063 -0.107 0.13 -0.161 0.193 c 0.013 0.008 0.024 0.014 0.037 0.024 C 122.688 88.924 122.731 88.851 122.771 88.779 Z M 124.874 84.71 c -0.716 0.083 -2.23 0.978 -3.897 2.029 C 122.795 85.977 124.395 85.248 124.874 84.71 Z M 120.977 86.741 c -0.087 0.036 -0.175 0.072 -0.263 0.11 c 0.006 0.013 0.014 0.027 0.023 0.04 C 120.817 86.842 120.897 86.791 120.977 86.741 Z M 124.729 84.113 c -0.672 -0.257 -2.43 -0.168 -4.396 -0.011 C 122.298 84.27 124.055 84.367 124.729 84.113 Z M 120.333 84.102 c -0.106 -0.01 -0.217 -0.02 -0.322 -0.029 c -0.001 0.019 -0.003 0.038 -0.001 0.056 C 120.119 84.119 120.228 84.11 120.333 84.102 Z M 124.876 83.519 c -0.474 -0.539 -2.069 -1.277 -3.882 -2.051 C 122.653 82.528 124.163 83.432 124.876 83.519 Z M 120.994 81.468 c -0.104 -0.067 -0.21 -0.134 -0.315 -0.201 c -0.009 0.019 -0.019 0.038 -0.028 0.055 C 120.766 81.371 120.883 81.419 120.994 81.468 Z M 125.284 83.061 c -0.169 -0.698 -1.241 -2.094 -2.485 -3.623 C 123.775 81.15 124.692 82.651 125.284 83.061 Z M 122.799 79.438 c -0.067 -0.115 -0.133 -0.232 -0.198 -0.349 c -0.019 0.013 -0.039 0.026 -0.057 0.039 C 122.629 79.231 122.716 79.335 122.799 79.438 Z" /><path id="SvgjsPath2951" opacity="0.4" fill="url(#SvgjsRadialGradient2952)" d="M 126.886 78.086 c -0.024 -0.003 -0.047 -0.007 -0.07 -0.01 c -0.008 0.138 -0.016 0.277 -0.024 0.414 C 126.821 78.356 126.854 78.22 126.886 78.086 Z M 126.791 78.489 c -0.443 1.922 -0.787 3.649 -0.63 4.35 C 126.511 82.211 126.671 80.459 126.791 78.489 Z M 126.161 82.839 c -0.084 0.15 -0.177 0.243 -0.283 0.254 c -0.106 0.01 -0.216 -0.064 -0.327 -0.195 c -0.004 0.171 -0.042 0.297 -0.133 0.356 c -0.09 0.059 -0.221 0.045 -0.38 -0.021 c 0.075 0.155 0.101 0.285 0.049 0.378 c -0.054 0.094 -0.176 0.142 -0.346 0.158 c 0.138 0.101 0.22 0.204 0.217 0.312 c -0.002 0.107 -0.089 0.207 -0.23 0.302 c 0.17 0.024 0.289 0.079 0.337 0.174 c 0.048 0.096 0.018 0.225 -0.064 0.375 c 0.162 -0.057 0.293 -0.065 0.38 -0.002 c 0.087 0.063 0.12 0.19 0.115 0.363 c 0.117 -0.125 0.229 -0.196 0.337 -0.179 c 0.105 0.014 0.194 0.113 0.27 0.268 c 0.046 -0.167 0.113 -0.279 0.216 -0.315 c 0.101 -0.036 0.226 0.01 0.363 0.111 c -0.035 -0.167 -0.028 -0.299 0.045 -0.378 c 0.072 -0.079 0.204 -0.096 0.375 -0.072 c -0.11 -0.132 -0.168 -0.251 -0.138 -0.355 c 0.027 -0.104 0.136 -0.18 0.299 -0.237 c -0.159 -0.064 -0.263 -0.145 -0.288 -0.25 c -0.022 -0.105 0.038 -0.223 0.154 -0.349 c -0.172 0.016 -0.302 -0.006 -0.37 -0.088 c -0.07 -0.082 -0.072 -0.214 -0.027 -0.379 c -0.143 0.094 -0.269 0.134 -0.368 0.093 C 126.262 83.122 126.198 83.007 126.161 82.839 Z M 126.729 83.07 c 0.601 -0.394 1.557 -1.871 2.578 -3.558 C 128.022 81.007 126.916 82.375 126.729 83.07 Z M 129.307 79.511 c 0.089 -0.102 0.18 -0.206 0.269 -0.311 c -0.02 -0.013 -0.037 -0.028 -0.056 -0.042 C 129.449 79.277 129.378 79.396 129.307 79.511 Z M 127.127 83.538 c 0.715 -0.07 2.249 -0.934 3.937 -1.953 C 129.231 82.312 127.614 83.01 127.127 83.538 Z M 131.063 81.584 c 0.116 -0.046 0.234 -0.092 0.354 -0.138 c -0.01 -0.021 -0.021 -0.04 -0.028 -0.059 C 131.281 81.453 131.173 81.52 131.063 81.584 Z M 127.259 84.137 c 0.666 0.27 2.426 0.218 4.396 0.101 C 129.692 84.03 127.938 83.896 127.259 84.137 Z M 131.654 84.237 c 0.111 0.013 0.226 0.025 0.339 0.037 c 0.001 -0.02 0.001 -0.039 0.002 -0.058 C 131.882 84.223 131.766 84.23 131.654 84.237 Z M 127.1 84.729 c 0.463 0.551 2.046 1.321 3.842 2.129 C 129.303 85.763 127.811 84.831 127.1 84.729 Z M 130.941 86.858 c 0.082 0.057 0.167 0.114 0.25 0.168 c 0.009 -0.015 0.018 -0.03 0.024 -0.045 C 131.126 86.942 131.032 86.9 130.941 86.858 Z M 126.681 85.179 c 0.155 0.701 1.199 2.12 2.413 3.674 C 128.151 87.119 127.265 85.599 126.681 85.179 Z M 129.095 88.85 c 0.041 0.075 0.082 0.153 0.124 0.229 c 0.012 -0.009 0.023 -0.016 0.037 -0.024 C 129.202 88.987 129.146 88.917 129.095 88.85 Z M 126.103 85.383 c -0.188 0.693 0.076 2.433 0.43 4.373 C 126.502 87.784 126.424 86.026 126.103 85.383 Z M 126.532 89.756 c 0.001 0.078 0.003 0.158 0.003 0.238 c 0.015 -0.002 0.026 -0.004 0.04 -0.004 C 126.562 89.913 126.547 89.833 126.532 89.756 Z M 125.495 85.294 c -0.489 0.528 -1.064 2.189 -1.652 4.072 C 124.733 87.607 125.48 86.013 125.495 85.294 Z M 123.843 89.366 c -0.035 0.068 -0.069 0.138 -0.104 0.208 c 0.012 0.006 0.022 0.009 0.035 0.015 C 123.797 89.516 123.821 89.439 123.843 89.366 Z M 125 84.934 c -0.68 0.239 -1.961 1.446 -3.356 2.838 C 123.25 86.628 124.652 85.563 125 84.934 Z M 121.644 87.772 c -0.067 0.047 -0.138 0.098 -0.205 0.145 c 0.01 0.011 0.02 0.02 0.029 0.032 C 121.525 87.89 121.586 87.832 121.644 87.772 Z M 124.728 84.385 c -0.713 -0.104 -2.406 0.368 -4.29 0.952 C 122.392 85.071 124.126 84.781 124.728 84.385 Z M 120.438 85.339 c -0.093 0.013 -0.188 0.024 -0.283 0.039 c 0.004 0.015 0.008 0.03 0.013 0.044 C 120.258 85.396 120.348 85.366 120.438 85.339 Z M 124.741 83.772 c -0.582 -0.423 -2.303 -0.792 -4.242 -1.149 C 122.353 83.294 124.025 83.843 124.741 83.772 Z M 120.499 82.623 c -0.101 -0.037 -0.205 -0.075 -0.305 -0.112 c -0.006 0.019 -0.011 0.037 -0.015 0.054 C 120.287 82.584 120.395 82.604 120.499 82.623 Z M 125.038 83.235 c -0.318 -0.643 -1.669 -1.769 -3.22 -2.986 C 123.147 81.704 124.372 82.968 125.038 83.235 Z M 121.818 80.25 c -0.083 -0.091 -0.167 -0.183 -0.251 -0.275 c -0.015 0.016 -0.028 0.031 -0.043 0.046 C 121.623 80.097 121.724 80.173 121.818 80.25 Z M 125.551 82.899 c 0.017 -0.718 -0.656 -2.344 -1.464 -4.142 C 124.588 80.663 125.085 82.35 125.551 82.899 Z M 124.087 78.757 c -0.034 -0.128 -0.067 -0.259 -0.102 -0.389 c -0.021 0.007 -0.043 0.015 -0.063 0.023 C 123.977 78.513 124.033 78.636 124.087 78.757 Z" /><path id="SvgjsPath2955" opacity="1" fill="#4e60a3" stroke-width="none" d="M 128.354 84 c 0 1.3 -1.054 2.353 -2.353 2.353 c -1.3 0 -2.354 -1.053 -2.354 -2.353 c 0 -1.299 1.055 -2.354 2.354 -2.354 C 127.302 81.646 128.354 82.7 128.354 84 Z" /><path id="SvgjsPath2956" opacity="0.9" fill="#000000" stroke-width="none" d="M 128.354 84 c 0 1.3 -1.054 2.353 -2.353 2.353 c -1.3 0 -2.354 -1.053 -2.354 -2.353 c 0 -1.299 1.055 -2.354 2.354 -2.354 C 127.302 81.646 128.354 82.7 128.354 84 Z" /><path id="SvgjsPath2957" opacity="0.5" fill="url(#SvgjsLinearGradient2958)" d="M 122.718 86.748 c 0.448 -0.302 1.059 -0.18 1.359 0.268 c 0.302 0.449 0.183 1.059 -0.268 1.36 c -0.45 0.303 -1.059 0.183 -1.359 -0.267 C 122.148 87.66 122.268 87.049 122.718 86.748 L 122.718 86.748 Z" /><path id="SvgjsPath2961" opacity="0.5" fill="url(#SvgjsLinearGradient2962)" d="M 127.859 83.672 c -0.251 0.374 -0.969 0.331 -1.605 -0.096 c -0.638 -0.427 -0.95 -1.078 -0.7 -1.451 l 0.001 -0.001 c 0.25 -0.374 0.969 -0.331 1.605 0.097 C 127.798 82.647 128.11 83.297 127.859 83.672 C 127.859 83.672 127.859 83.672 127.859 83.672 Z" /><path id="SvgjsPath2965" opacity="0.75" fill="url(#SvgjsLinearGradient2966)" d="M 130.717 82.673 c -0.569 0.873 -2.036 0.925 -3.276 0.117 c -1.239 -0.808 -1.784 -2.17 -1.215 -3.043 c 0.568 -0.872 2.035 -0.924 3.275 -0.117 C 130.74 80.439 131.284 81.802 130.717 82.673 L 130.717 82.673 Z" /></g></g></g><g id="svga-group-eyesfront-right"><path id="SvgjsPath2997" opacity="1" fill="#f5af95" stroke="none" stroke-width="none" d="M 126.063 56.402 c -16.04 0 -21.127 12.091 -21.127 26.528 s 10.366 22.412 20.864 22.305 c 8.869 1.347 19.697 -11.337 20.506 -22.236 C 146.307 68.563 137.563 56.402 126.063 56.402 Z M 127.339 90.163 c -3.614 0.398 -13.873 -1.561 -14.253 -2.847 c -0.687 -2.32 4.534 -6.921 12.052 -7.844 c 7.52 -0.922 13.217 0.767 12.711 3.051 C 136.627 88.04 131.003 89.758 127.339 90.163 Z" /><path id="SvgjsPath2998" opacity="1" fill="url(#SvgjsRadialGradient2999)" d="M 127.339 90.163 c -3.614 0.398 -13.873 -1.561 -14.253 -2.847 c -0.687 -2.32 4.534 -6.921 12.052 -7.844 c 6.46 -0.792 11.563 0.345 12.556 2.128 c -0.898 -6.4 -7.7 -11.397 -15.987 -11.434 c -8.911 -0.037 -16.148 5.676 -16.172 12.765 c -0.021 7.088 7.185 12.862 16.095 12.902 c 8.913 0.037 16.149 -5.676 16.173 -12.764 c 0 -0.105 -0.016 -0.208 -0.019 -0.313 C 136.453 88.083 130.949 89.764 127.339 90.163 Z" /><path id="SvgjsPath3003" opacity="1" fill="url(#SvgjsRadialGradient3004)" d="M 137.849 82.523 c 0.506 -2.285 -5.191 -3.973 -12.711 -3.051 c -7.518 0.923 -12.738 5.524 -12.052 7.844 c 0.38 1.286 10.639 3.245 14.253 2.847 C 131.003 89.758 136.627 88.04 137.849 82.523 Z" /><path id="SvgjsPath3007" opacity="1" fill="#c7633d" stroke="none" stroke-width="none" d="M 137.452 77.417 c -4.208 -1.978 -9.35 -2.16 -13.838 -1.005 c -2.404 0.561 -4.965 1.285 -7.063 2.638 c -1.945 1.135 -3.525 2.5 -5.002 4.19 c 1.342 -1.701 2.773 -3.118 4.623 -4.27 c 2.276 -1.416 4.769 -2.294 7.364 -2.916 C 128.123 74.928 133.259 75.184 137.452 77.417 Z" /><path id="SvgjsPath3008" opacity="1" fill="#000000" stroke="none" stroke-width="none" d="M 136.832 78.02 c -0.88 -0.352 -4.065 -1 -5.456 -1.066 c -1.687 -0.082 -5.073 0.125 -6.735 0.424 c -3.374 0.608 -9.251 2.483 -11.678 7.184 c -0.746 1.445 -0.074 2.456 0.123 2.675 c -0.3 -2.426 4.838 -6.746 12.052 -7.604 c 7.52 -0.894 13.217 0.743 12.711 2.958 c -1.222 5.348 -6.846 7.013 -10.51 7.405 c -4.099 0.439 -11.684 -1.539 -12.686 -1.753 c 1.999 1.009 7.524 2.095 9.767 2.303 c 0.744 0.07 2.24 0.104 2.986 0.085 c 5.949 -0.158 10.169 -3.175 11.729 -7.26 C 140.137 80.745 139.041 78.902 136.832 78.02 Z" /></g></g><g id="svga-group-facehighlight-single" ><path id="SvgjsPath2882" opacity="1" fill="url(#SvgjsRadialGradient2883)" d="M 141 113.974 c 0.035 22.622 -18.292 40.994 -40.938 41.025 c -22.642 0.037 -41.028 -18.273 -41.063 -40.9 c -0.035 -22.62 18.292 -41.064 40.937 -41.1 C 122.579 72.964 140.967 91.349 141 113.974 Z" /><path id="SvgjsPath2886" opacity="1" fill="url(#SvgjsRadialGradient2887)" d="M 137.5 53.999 c 0 20.711 -16.789 37.5 -37.499 37.5 c -20.711 0 -37.501 -16.789 -37.501 -37.5 s 16.79 -37.5 37.501 -37.5 C 120.711 16.499 137.5 33.288 137.5 53.999 Z" /></g><g id="svga-group-eyebrows-left" ><path id="SvgjsPath2907" opacity="1" fill="#2a232b" stroke-width="none" d="M 54 74.189 c 9.954 -9.974 16.761 -5.915 30.589 -3.264 c 0.845 0.162 6.32 1.539 5.31 3.469 c -0.483 0.924 -2.036 0.814 -2.903 0.798 C 73.308 74.936 66.652 65.197 54 74.189 Z" /></g><g id="svga-group-eyebrows-right" ><path id="SvgjsPath2908" opacity="1" fill="#2a232b" stroke-width="none" d="M 146 74.189 c -9.953 -9.974 -16.761 -5.915 -30.589 -3.264 c -0.846 0.162 -6.32 1.539 -5.311 3.469 c 0.483 0.924 2.036 0.814 2.903 0.798 C 126.691 74.936 133.348 65.197 146 74.189 Z" /></g><g id="svga-group-nose-single" ><path id="SvgjsPath3020" opacity="1" fill="#e69375" stroke="none" stroke-width="none" d="M 91.115 115.499 c -0.878 2.064 5.934 4.292 8.519 4.429 c 2.8 0.147 10.646 -2.9 9.316 -4.992 c -1.399 -2.195 -6.643 -0.286 -8.906 -0.286 C 97.792 114.649 92.291 112.745 91.115 115.499 Z" /><path id="SvgjsPath3021" opacity="1" fill="#c7633d" stroke="none" stroke-width="none" d="M 101.857 117.058 c -0.23 -0.759 1.876 -1.584 2.657 -1.694 c 1.101 -0.16 3.36 0.802 3.158 1.592 c -0.184 0.698 -2.148 -0.533 -2.86 -0.429 C 104.078 116.634 102.075 117.769 101.857 117.058 Z M 94.974 116.811 c 0.968 0 2.404 0.623 2.668 0.074 c 0.315 -0.655 -2.139 -1.461 -2.86 -1.372 c -0.596 0.07 -2.733 1.315 -2.439 1.839 C 92.617 117.833 93.698 116.811 94.974 116.811 Z" /><path id="SvgjsPath3022" opacity="0.2" fill="#ffdbce" stroke="none" stroke-width="none" d="M 100.089 111.999 c 0.607 0 1.742 -0.74 1.792 -2.23 c 0.201 -6.008 -0.956 -23.833 -1.792 -23.77 c -0.78 0.059 -2.267 17.637 -1.948 23.77 C 98.22 111.271 99.404 111.999 100.089 111.999 Z" /></g><g id="svga-group-beardwrap" ><g id="svga-group-beard-single" ><path id="SvgjsPath3018" opacity="1" fill="#2a232b" stroke-width="none" d="M 100 18.13 L 100 18.13 L 100 18.13 L 100 18.13 Z" /></g></g><g id="svga-group-mustache-single" ><path id="SvgjsPath3016" opacity="1" fill="#2a232b" stroke-width="none" d="M 100 18.13 L 100 18.13 L 100 18.13 L 100 18.13 Z" /></g><g id="svga-group-hair-front" ><path id="SvgjsPath3358" opacity="1" fill="#2a232b" stroke-width="none" d="M 152.983 98.604 c -4.563 -12.435 0.717 -31.506 -8.205 -45.615 c -4.064 -6.762 -7.597 -11.409 -6.95 -19.276 l -0.368 -0.124 c -0.862 1.352 -1.994 2.82 -2.745 3.76 c 0.427 -1.091 1.123 -2.762 1.753 -4.023 l -0.332 -0.218 c -2.585 3.073 -4.805 4.649 -7.859 5.5 c 3.3 -2.32 6.949 -6.357 8.546 -8.595 l -0.271 -0.284 c -11.319 7.283 -24.164 7.382 -35.496 7.471 c -10.227 0.076 -16.579 -0.155 -23.953 -4.441 c -5.321 1.764 -9.511 1.539 -14.116 -1.635 c -14.414 27.947 -8.01 13.957 -16.627 65.764 c -5.004 -6.67 -6.458 -10.912 -7.642 -17.267 c -0.313 -2.027 -0.619 -5.154 -0.429 -7.215 l -0.063 -0.065 c -4.452 -9.77 -6.553 -15.333 -5.495 -34.712 c 0.785 -8.04 2.533 -14.076 7.574 -20.398 c -0.665 -3.435 -0.729 -6.898 -0.277 -10.21 c -2.64 -4.827 -4.457 -9.795 -5.165 -11.57 c 3.688 2.823 3.993 2.986 7.07 3.957 c 0.704 -1.937 1.73 -3.861 2.387 -4.865 c 0.297 2.238 0.533 3.75 1.203 5.925 c 0.228 0.055 1.313 0.349 1.66 0.442 c -0.199 -1.324 -0.381 -1.938 -0.353 -3.125 c 0.571 1.302 1.053 1.604 2.71 3.626 c 1.834 0.385 1.394 0.328 1.944 0.328 c -2.669 -4.183 -4.47 -7.885 -4.927 -13.515 c 3.653 2.081 8.764 3.27 14.101 3.27 c 12.539 0 25.369 -9.412 43.169 -9.412 c 15.425 0 28.771 8.558 34.683 18.303 c -0.006 -2.514 -0.113 -4.594 0.794 -7.178 c 0 0 0.105 3.705 0.105 6.592 l 0.396 0.037 c 0.62 -3.301 1.928 -6.115 4.088 -8.773 c -1.918 5.158 -1.188 2.404 -3.334 8.702 l 0.348 0.187 c 1.431 -1.839 2.603 -3.139 6.019 -4.862 c -2.468 2.473 -4.355 3.89 -5.522 5.639 l 0.301 0.259 c 1.456 -1.32 2.971 -1.82 4.512 -0.613 c -2.481 -0.902 -3.946 0.679 -5.648 2.675 c 6.619 1.091 10.21 4.91 14.864 10.015 c 10.712 12.352 13.533 24.411 7.723 41.506 c 2.435 5.263 2.06 17.125 -3.375 26.686 C 159.779 86.867 155.941 93.789 152.983 98.604 Z" /><path id="SvgjsPath3359" opacity="1" fill="#1b141c" stroke-width="none" d="M 62.299 30.371 c 0.359 0.334 0.718 0.668 1.074 1.004 c -0.129 -0.085 -0.258 -0.164 -0.388 -0.253 c -14.414 27.947 -8.01 13.957 -16.627 65.764 c -5.004 -6.67 -6.458 -10.912 -7.642 -17.267 c -0.313 -2.027 -0.619 -5.154 -0.429 -7.215 l -0.063 -0.065 c -4.452 -9.77 -6.553 -15.333 -5.495 -34.712 c 0.785 -8.04 2.533 -14.076 7.574 -20.398 c -0.654 -3.378 -0.72 -6.782 -0.293 -10.044 c 0.597 0.874 1.223 1.725 1.863 2.565 C 42.304 12.374 42.669 14.933 42 17 c -9.539 29.478 -4 43 2 64 c -2.464 -15.931 -7.142 -36.185 5.619 -48 C 44.168 46.096 45.673 52.034 47 61 C 47.917 49.082 52.195 37.996 62.299 30.371 Z M 155.432 13.06 c -0.376 -0.412 -0.742 -0.812 -1.106 -1.207 c -0.382 0.255 -0.774 0.489 -1.159 0.737 c 14.956 30.661 0.594 27.717 4.017 41.409 C 161.183 63.999 156 70 156 80 c 0 -15 -0.681 -25.439 -8.96 -37.175 c -2.796 -3.963 -3.581 -17.423 -5.465 -24.074 C 118.373 33 84.002 35.981 47.916 7.183 c 17 6 51.649 1.35 63.543 -6.316 c -13.558 2.461 -41.862 2.608 -54.59 -2.631 c 30.5 -2.37 30.131 -12.16 56.131 -14 C 100.5 -20.431 73.196 -8.51 60.658 -8.51 c -5.336 0 -10.447 -1.188 -14.101 -3.27 c 0.457 5.63 2.258 9.333 4.927 13.515 c -0.551 0 -0.11 0.057 -1.944 -0.328 c -1.658 -2.022 -2.14 -2.325 -2.71 -3.626 c -0.029 1.187 0.154 1.801 0.353 3.125 c -0.347 -0.093 -1.433 -0.387 -1.66 -0.442 c -0.67 -2.175 -0.906 -3.687 -1.203 -5.925 c -0.656 1.004 -1.683 2.928 -2.387 4.865 c -3.078 -0.971 -3.382 -1.134 -7.07 -3.957 c 0.708 1.775 2.525 6.744 5.165 11.57 c -0.007 0.055 -0.009 0.111 -0.016 0.166 c 6.305 9.235 15.169 16.471 23.363 24.192 c 4.454 2.924 8.558 3.096 13.729 1.382 c 7.374 4.286 13.727 4.517 23.953 4.441 c 11.332 -0.088 24.177 -0.188 35.496 -7.471 l 0.271 0.284 c -1.597 2.238 -5.246 6.275 -8.546 8.595 c 3.055 -0.852 5.274 -2.428 7.859 -5.5 l 0.332 0.218 c -0.63 1.262 -1.326 2.932 -1.753 4.023 c 0.751 -0.94 1.883 -2.408 2.745 -3.76 l 0.368 0.124 c -0.646 7.868 2.886 12.514 6.95 19.276 c 8.922 14.109 3.643 33.181 8.205 45.615 c 2.958 -4.815 6.796 -11.736 6.796 -17.352 c 5.435 -9.561 5.81 -21.423 3.375 -26.686 C 168.965 37.471 166.144 25.412 155.432 13.06 Z M 156.165 38.709 c -0.33 -9.524 -6.633 -21.612 -6.633 -21.612 c -2.946 -5.204 -5.579 -7.687 -9.996 -8.695 c 12.426 0.619 17.306 19.179 16.769 28.875 C 156.254 38.177 156.165 38.709 156.165 38.709 Z M 127.907 -1.507 c 3.283 2.663 4.067 3.423 7.296 7.909 c -16.653 -29.889 -49.333 -7.27 -59.667 -8 C 86.041 0.573 109.793 -14.79 127.907 -1.507 Z M 136.369 11.485 C 116.408 28.033 85.929 21.023 61 13.21 C 85.827 24.581 117.435 30.734 136.369 11.485 Z M 57.869 29.485 c -6.539 3.425 -9.616 12.05 -9.9 17.75 C 49.19 42.316 52.854 33.291 57.869 29.485 Z M 49.619 24.735 c -9.359 5.699 -11.174 18.771 -10.25 29.75 C 40.353 44.343 42.181 31.11 49.619 24.735 Z M 117.064 12.34 c -1.006 0.215 -7.259 1.072 -10.672 1.195 c -2.661 0.155 -13.037 0.328 -22.391 -0.048 c 9.655 2.069 15.454 2.454 22.496 2.045 c 8.106 -0.293 15.36 -1.898 21.371 -6.796 C 123.633 11.067 121.828 11.399 117.064 12.34 Z M 150.609 38.885 c 0 0 -0.256 -0.441 -0.588 -1.102 c -0.911 -1.527 -1.945 -5.681 -5.938 -18.736 c 2.966 24.195 7.817 19.782 9.991 32.283 C 154.075 46.834 153.761 44.529 150.609 38.885 Z" /><path id="SvgjsPath3360" opacity="1" fill="#3a353a" stroke-width="none" d="M 157.853 68.131 c 0.364 -3.246 0.217 -1.758 0.257 -3.61 c 0.306 -6.244 -3.426 -11.479 -1.154 -18.987 c 1.854 -5.453 2.925 -6.308 2.113 -15.801 c -0.119 -1.37 -0.474 -4.774 -1.102 -5.998 c 0.856 1.489 1.422 4.245 1.725 5.934 c 1.687 9.543 0.268 10.992 -1.521 16.267 C 155.781 53.906 160.368 57.422 157.853 68.131 Z M 141.575 18.751 c 1.117 30.37 7.276 23.316 12.717 41.752 C 150.598 38.757 147.181 56.786 141.575 18.751 Z M 48.369 34.235 c -9.19 11.563 -8.262 19.899 -6 37 C 42.165 53.925 40.055 47.355 48.369 34.235 Z M 41.772 17.714 c -5.274 16.319 -6.429 23.684 -3.897 41.285 C 37.406 41.353 37.518 37.458 41.772 17.714 Z M 61.952 30.641 C 52.322 37.56 47.295 50.217 47 61 C 48.482 50.695 54.012 37.697 61.952 30.641 Z M 128.855 24.594 c -12.051 4.437 -31.667 5.625 -45.988 1.322 C 71.706 22.661 54.279 11.723 44.905 4.845 c 8.498 6.765 23.471 16.807 33.926 20.776 c 10.863 4.059 27.887 5.567 41.081 2.245 c 9.248 -2.324 14.041 -4.52 21.663 -9.114 C 138.182 20.612 133.184 23.242 128.855 24.594 Z M 102.813 -11.594 c 12.167 -2.285 26.509 5.558 34.057 14.83 c -7.897 -11.318 -20.837 -16.949 -28.562 -17.083 C 95.629 -14.067 82.513 -3.204 56.869 -2.265 C 80.982 -1.203 92.573 -9.936 102.813 -11.594 Z M 112.369 1.235 c -17.289 6.143 -30.64 7.613 -48.807 8.58 C 82.325 10.97 95.739 9.15 112.369 1.235 Z M 130.536 4.738 c -10.662 5.027 -15.33 5.851 -37.337 7.191 C 106.996 12.486 119.885 11.769 130.536 4.738 Z M 95.248 20.023 c 10.644 1.237 29.289 -0.105 38.621 -9.788 c -11.27 9.494 -32.119 9.154 -48.38 8.508 C 91.713 19.714 90.59 19.552 95.248 20.023 Z M 140.869 10.735 c 7.629 2.809 9.489 16.193 12.5 27 C 152.022 28.156 149.721 12.813 140.869 10.735 Z" /><path id="SvgjsPath3361" opacity="1" fill="#000000" stroke-width="none" d="M 155.579 12.925 c -4.348 -4.769 -8.252 -8.97 -14.63 -10.02 c 2.094 -2.463 3.566 -3.379 6.25 -1.85 c -1.59 -1.871 -3.417 -2.226 -5.63 -0.22 c 1.271 -1.905 3.468 -3.46 6.3 -6.43 c -4.231 1.985 -5.503 3.34 -7.12 5.42 c 2.285 -6.703 1.3 -3.128 3.72 -9.75 c -2.529 2.836 -4.146 5.92 -4.859 9.72 c 0 -5.903 -0.185 -5.14 -0.07 -7.72 c -1.387 3.089 -1.229 5.81 -1.229 7.59 c -2.233 -3.682 -5.514 -6.8 -9.051 -9.35 c -25.054 -18.289 -50.039 -1.456 -63.58 0.58 c -5.489 0.927 -13.714 0.338 -19.35 -3.04 c 0.398 5.764 2.183 9.592 4.79 13.68 c -0.001 0 -1.47 -0.31 -1.47 -0.31 c -2.019 -2.434 -2.214 -2.356 -2.96 -4.33 c -0.191 1.763 0.101 2.74 0.25 3.74 c -0.498 -0.13 -0.957 -0.268 -1.26 -0.34 c -0.743 -2.414 -0.958 -4.25 -1.23 -6.29 c -0.614 0.785 -1.922 3.18 -2.64 5.15 c -2.999 -0.948 -3.214 -1.099 -7.43 -4.33 c 0.5 1 2.309 6.461 5.44 12.23 c -0.47 3.534 -0.328 7.06 0.27 10.12 c -5.025 6.312 -6.77 12.346 -7.56 20.44 c -1.041 19.059 0.867 24.611 5.53 34.82 c 0.01 0.01 0.01 0.03 0.02 0.04 c -0.177 1.971 0.119 5.102 0.44 7.18 c 1.179 6.332 2.625 10.693 7.91 17.65 c 0.02 0.02 0.03 0.05 0.05 0.07 c 3.395 -20.368 3.045 -20.867 3.77 -25.89 c 3.572 -25.712 3.417 -21.872 12.81 -40.07 c 3.813 2.628 8.035 3.552 14.02 1.56 c 4.342 2.524 8.776 4.45 21.06 4.45 c 12.171 -0.152 26.176 0.412 38.52 -7.53 c -1.87 2.622 -6.118 7.154 -9.46 9.18 c 3.479 -0.736 5.975 -2.137 9.09 -5.84 c -0.957 1.915 -2.083 4.814 -2.17 5.16 c 0.15 -0.18 2.15 -2.57 3.51 -4.7 c -0.653 7.945 2.894 12.597 6.98 19.4 c 8.956 14.163 3.511 33.521 8.33 45.96 c 3.09 -4.996 7.04 -12.086 7.04 -17.75 c 5.21 -9.086 5.956 -21.111 3.39 -26.75 C 168.587 38.924 167.533 26.708 155.579 12.925 Z M 46.789 -2.465 c 0.488 1.389 0.595 1.359 2.49 3.61 c -0.94 -0.195 -1.565 -0.332 -2.13 -0.46 C 46.93 -0.371 46.789 -1.375 46.789 -2.465 Z M 44.279 -5.125 c 0.094 1.532 0.459 3.542 0.99 5.31 c -2.865 -0.737 -1.8 -0.504 -2.8 -0.8 C 43.292 -3.089 43.602 -3.715 44.279 -5.125 Z M 45.999 95.095 c -4.216 -7.605 -5.323 -10.191 -6.49 -17.89 c -0.114 -0.886 -0.472 -3.446 -0.49 -4.67 c -6.07 -13.88 -8.352 -40.236 1.21 -54.74 c 0 -0.01 0 -0.01 0 -0.01 s 0.399 -0.624 1.12 -1.52 c -0.267 -1.344 -0.531 -4.18 -0.44 -7.28 c 0.74 1.32 1.58 2.52 2.33 3.67 c 0 -0.003 0.59 0.781 0.59 0.8 c 4.551 5.79 8.754 10.604 18.92 17.75 C 50.544 50.979 51.301 44.3 45.999 95.095 Z M 163.639 48.206 c -0.356 2.358 -1.123 5.583 -1.539 6.99 c 2.78 7.068 -0.257 20.417 -3.061 26.38 c -1.226 7.093 -2.545 8.521 -6.01 15.59 c -2.477 -11 2.583 -30.519 -6.76 -45.08 c -6.059 -10.044 -8.657 -11.36 -7.23 -23.77 c 0 0 0.061 -0.675 0.08 -0.85 c -12.628 7.721 -26.576 8.594 -44.97 8.2 c -5.317 0 -12.5 -0.668 -16.98 -3.44 c -9.081 2.583 -12.45 -1.437 -20.01 -7.34 c -8.163 -6.937 -13.709 -12.994 -20.55 -27.27 c 3.843 3.118 11.537 4.689 16.39 5.5 c -3.273 -4.363 -5.199 -8.349 -6.07 -14 c 3.48 2.32 11.82 4.603 19.17 3.79 c 13.534 -1.271 32.484 -15.167 55.77 -4.63 c 10.804 4.767 16.286 11.476 17.57 15 c 0.01 0 0.02 0.01 0.04 0.01 c 0.06 0.02 0.12 0.03 0.189 0.04 c 0.017 0.018 0.332 0.09 0.36 0.09 c 6.976 2.325 7.443 2.759 14.2 10.64 C 158.026 18.715 167.168 28.016 163.639 48.206 Z" /></g><g id="svga-group-glasses-single" ><path id="SvgjsPath3009" opacity="1" fill="#26120b" stroke-width="none" d="M 100 18.13 L 100 18.13 L 100 18.13 L 100 18.13 Z" /></g></g></g></g><defs id="SvgjsDefs1001"><radialGradient class="svga-on-canvas-facehighlight-gradient-single-0" id="SvgjsRadialGradient2883" gradientUnits="userSpaceOnUse" cx="100" cy="114" r="41"><stop id="SvgjsStop2884" stop-color="rgb(255, 201, 181)" stop-opacity="0.5" offset="0" /><stop id="SvgjsStop2885" stop-color="rgb(245, 175, 149)" stop-opacity="0" offset="0.9" /></radialGradient><radialGradient class="svga-on-canvas-facehighlight-gradient-single-1" id="SvgjsRadialGradient2887" gradientUnits="userSpaceOnUse" cx="100" cy="54" r="37"><stop id="SvgjsStop2888" stop-color="rgb(255, 201, 181)" stop-opacity="0.5" offset="0" /><stop id="SvgjsStop2889" stop-color="rgb(245, 175, 149)" stop-opacity="0" offset="0.9" /></radialGradient><radialGradient class="svga-on-canvas-eyesback-gradient-left-0" id="SvgjsRadialGradient2910" gradientUnits="userSpaceOnUse" gradientTransform="matrix(-0.9945, 0.1042, 0.1042, 0.9945, 192.828, -12.4633)" cx="129.041" cy="83.945" r="15.117"><stop id="SvgjsStop2911" stop-color="rgb(255, 255, 255)" stop-opacity="1" offset="0" /><stop id="SvgjsStop2912" stop-color="rgb(252, 253, 253)" stop-opacity="1" offset="0.315" /><stop id="SvgjsStop2913" stop-color="rgb(244, 247, 248)" stop-opacity="1" offset="0.504" /><stop id="SvgjsStop2914" stop-color="rgb(229, 236, 239)" stop-opacity="1" offset="0.66" /><stop id="SvgjsStop2915" stop-color="rgb(216, 226, 231)" stop-opacity="1" offset="0.76" /></radialGradient><radialGradient class="svga-on-canvas-eyesback-gradient-right-0" id="SvgjsRadialGradient2917" gradientUnits="userSpaceOnUse" gradientTransform="matrix(0.9945, 0.1042, -0.1042, 0.9945, 7.1738, -12.4633)" cx="128.643" cy="83.986" r="15.116"><stop id="SvgjsStop2918" stop-color="rgb(255, 255, 255)" stop-opacity="1" offset="0" /><stop id="SvgjsStop2919" stop-color="rgb(252, 253, 253)" stop-opacity="1" offset="0.316" /><stop id="SvgjsStop2920" stop-color="rgb(244, 247, 248)" stop-opacity="1" offset="0.505" /><stop id="SvgjsStop2921" stop-color="rgb(229, 236, 239)" stop-opacity="1" offset="0.661" /><stop id="SvgjsStop2922" stop-color="rgb(216, 226, 231)" stop-opacity="1" offset="0.76" /></radialGradient><radialGradient class="svga-on-canvas-eyesiris-gradient-left-1" id="SvgjsRadialGradient2925" gradientUnits="userSpaceOnUse" gradientTransform="matrix(0.096, -0.0248, 0.0245, 0.0961, 141.281, 119.989)" cx="-568.659" cy="-521.042" r="59.751"><stop id="SvgjsStop2926" stop-color="rgb(255, 255, 255)" stop-opacity="1" offset="0" /><stop id="SvgjsStop2927" stop-color="rgb(255, 255, 255)" stop-opacity="0" offset="1" /></radialGradient><radialGradient class="svga-on-canvas-eyesiris-gradient-left-2" id="SvgjsRadialGradient2929" gradientUnits="userSpaceOnUse" gradientTransform="matrix(0.0991, 0.000885632, -0.0011, 0.0991, 131.113, 135.986)" cx="-582.838" cy="-519.099" r="59.745"><stop id="SvgjsStop2930" stop-color="rgb(255, 255, 255)" stop-opacity="1" offset="0" /><stop id="SvgjsStop2931" stop-color="rgb(255, 255, 255)" stop-opacity="0" offset="1" /></radialGradient><linearGradient class="svga-on-canvas-eyesiris-gradient-left-5" id="SvgjsLinearGradient2935" gradientUnits="userSpaceOnUse" gradientTransform="matrix(1, 0, 0, 1, -52, 0)" x1="122.67" y1="88.268" x2="123.606" y2="87.152"><stop id="SvgjsStop2936" stop-color="rgb(255, 255, 255)" stop-opacity="1" offset="0" /><stop id="SvgjsStop2937" stop-color="rgb(255, 255, 255)" stop-opacity="0" offset="1" /></linearGradient><linearGradient class="svga-on-canvas-eyesiris-gradient-left-6" id="SvgjsLinearGradient2939" gradientUnits="userSpaceOnUse" gradientTransform="matrix(1, 0, 0, 1, -52, 0)" x1="127.212" y1="82.296" x2="126.463" y2="83.189"><stop id="SvgjsStop2940" stop-color="rgb(255, 255, 255)" stop-opacity="1" offset="0" /><stop id="SvgjsStop2941" stop-color="rgb(255, 255, 255)" stop-opacity="0" offset="1" /></linearGradient><linearGradient class="svga-on-canvas-eyesiris-gradient-left-7" id="SvgjsLinearGradient2943" gradientUnits="userSpaceOnUse" gradientTransform="matrix(1, 0, 0, 1, -52, 0)" x1="129.636" y1="79.822" x2="127.91" y2="81.879"><stop id="SvgjsStop2944" stop-color="rgb(255, 255, 255)" stop-opacity="1" offset="0" /><stop id="SvgjsStop2945" stop-color="rgb(255, 255, 255)" stop-opacity="0" offset="1" /></linearGradient><radialGradient class="svga-on-canvas-eyesiris-gradient-right-1" id="SvgjsRadialGradient2948" gradientUnits="userSpaceOnUse" gradientTransform="matrix(0.096, -0.0248, 0.0245, 0.0961, 193.28, 119.989)" cx="-568.654" cy="-521.042" r="59.752"><stop id="SvgjsStop2949" stop-color="rgb(255, 255, 255)" stop-opacity="1" offset="0" /><stop id="SvgjsStop2950" stop-color="rgb(255, 255, 255)" stop-opacity="0" offset="1" /></radialGradient><radialGradient class="svga-on-canvas-eyesiris-gradient-right-2" id="SvgjsRadialGradient2952" gradientUnits="userSpaceOnUse" gradientTransform="matrix(0.0991, 0.000885632, -0.0011, 0.0991, 183.113, 135.986)" cx="-582.833" cy="-519.102" r="59.747"><stop id="SvgjsStop2953" stop-color="rgb(255, 255, 255)" stop-opacity="1" offset="0" /><stop id="SvgjsStop2954" stop-color="rgb(255, 255, 255)" stop-opacity="0" offset="1" /></radialGradient><linearGradient class="svga-on-canvas-eyesiris-gradient-right-5" id="SvgjsLinearGradient2958" gradientUnits="userSpaceOnUse" x1="122.67" y1="88.268" x2="123.606" y2="87.152"><stop id="SvgjsStop2959" stop-color="rgb(255, 255, 255)" stop-opacity="1" offset="0" /><stop id="SvgjsStop2960" stop-color="rgb(255, 255, 255)" stop-opacity="0" offset="1" /></linearGradient><linearGradient class="svga-on-canvas-eyesiris-gradient-right-6" id="SvgjsLinearGradient2962" gradientUnits="userSpaceOnUse" x1="127.212" y1="82.296" x2="126.463" y2="83.189"><stop id="SvgjsStop2963" stop-color="rgb(255, 255, 255)" stop-opacity="1" offset="0" /><stop id="SvgjsStop2964" stop-color="rgb(255, 255, 255)" stop-opacity="0" offset="1" /></linearGradient><linearGradient class="svga-on-canvas-eyesiris-gradient-right-7" id="SvgjsLinearGradient2966" gradientUnits="userSpaceOnUse" x1="129.636" y1="79.822" x2="127.91" y2="81.879"><stop id="SvgjsStop2967" stop-color="rgb(255, 255, 255)" stop-opacity="1" offset="0" /><stop id="SvgjsStop2968" stop-color="rgb(255, 255, 255)" stop-opacity="0" offset="1" /></linearGradient><radialGradient class="svga-on-canvas-eyesfront-gradient-left-0" id="SvgjsRadialGradient2970" gradientUnits="userSpaceOnUse" gradientTransform="matrix(-0.9945, 0.1042, 0.1042, 0.9945, 192.828, -12.4633)" cx="129.041" cy="83.945" r="15.117"><stop id="SvgjsStop2971" stop-color="rgb(255, 255, 255)" stop-opacity="1" offset="0" /><stop id="SvgjsStop2972" stop-color="rgb(252, 253, 253)" stop-opacity="1" offset="0.316" /><stop id="SvgjsStop2973" stop-color="rgb(244, 247, 248)" stop-opacity="1" offset="0.505" /><stop id="SvgjsStop2974" stop-color="rgb(229, 236, 239)" stop-opacity="1" offset="0.661" /><stop id="SvgjsStop2975" stop-color="rgb(216, 226, 231)" stop-opacity="1" offset="0.76" /></radialGradient><radialGradient class="svga-on-canvas-eyesfront-gradient-left-3" id="SvgjsRadialGradient2979" gradientUnits="userSpaceOnUse" gradientTransform="matrix(0.9998, 0.0208, 0.0166, -0.7998, -45.3195, 145.939)" cx="121.986" cy="82.496" r="16.003" fx="133.239" fy="82.527"><stop id="SvgjsStop2980" stop-color="rgb(230, 147, 117)" stop-opacity="1" offset="0" /><stop id="SvgjsStop2981" stop-color="rgb(230, 147, 117)" stop-opacity="0.3" offset="0.7" /><stop id="SvgjsStop2982" stop-color="rgb(245, 175, 149)" stop-opacity="0" offset="1" /></radialGradient><radialGradient class="svga-on-canvas-eyesfront-gradient-left-4" id="SvgjsRadialGradient2984" gradientUnits="userSpaceOnUse" gradientTransform="matrix(1.0336, 0, 0, 1.0336, -1.6796, 1.3127)" cx="68.931" cy="105.995" r="29.524"><stop id="SvgjsStop2985" stop-color="rgb(0, 0, 0)" stop-opacity="0" offset="0.95" /><stop id="SvgjsStop2986" stop-color="rgb(0, 0, 0)" stop-opacity="0.2" offset="1" /></radialGradient><radialGradient class="svga-on-canvas-eyesfront-gradient-right-0" id="SvgjsRadialGradient2990" gradientUnits="userSpaceOnUse" gradientTransform="matrix(0.9945, 0.1042, -0.1042, 0.9945, 7.1738, -12.4633)" cx="128.643" cy="83.986" r="15.116"><stop id="SvgjsStop2991" stop-color="rgb(255, 255, 255)" stop-opacity="1" offset="0" /><stop id="SvgjsStop2992" stop-color="rgb(252, 253, 253)" stop-opacity="1" offset="0.316" /><stop id="SvgjsStop2993" stop-color="rgb(244, 247, 248)" stop-opacity="1" offset="0.505" /><stop id="SvgjsStop2994" stop-color="rgb(229, 236, 239)" stop-opacity="1" offset="0.661" /><stop id="SvgjsStop2995" stop-color="rgb(216, 226, 231)" stop-opacity="1" offset="0.76" /></radialGradient><radialGradient class="svga-on-canvas-eyesfront-gradient-right-3" id="SvgjsRadialGradient2999" gradientUnits="userSpaceOnUse" gradientTransform="matrix(-0.9998, 0.0208, -0.0166, -0.7998, 244.521, 145.948)" cx="121.587" cy="82.496" r="16.003" fx="132.839" fy="82.527"><stop id="SvgjsStop3000" stop-color="rgb(230, 147, 117)" stop-opacity="1" offset="0" /><stop id="SvgjsStop3001" stop-color="rgb(230, 147, 117)" stop-opacity="0.3" offset="0.7" /><stop id="SvgjsStop3002" stop-color="rgb(245, 175, 149)" stop-opacity="0" offset="1" /></radialGradient><radialGradient class="svga-on-canvas-eyesfront-gradient-right-4" id="SvgjsRadialGradient3004" gradientUnits="userSpaceOnUse" gradientTransform="matrix(-1.0336, 0, 0, 1.0336, 201.68, 1.3127)" cx="69.316" cy="105.995" r="29.524"><stop id="SvgjsStop3005" stop-color="rgb(0, 0, 0)" stop-opacity="0" offset="0.95" /><stop id="SvgjsStop3006" stop-color="rgb(0, 0, 0)" stop-opacity="0.2" offset="1" /></radialGradient><linearGradient class="svga-on-canvas-mouth-gradient-single-0" id="SvgjsLinearGradient3064" gradientUnits="userSpaceOnUse" x1="100" y1="142" x2="100" y2="139"><stop id="SvgjsStop3065" stop-color="rgb(237, 161, 132)" stop-opacity="1" offset="0.1" /><stop id="SvgjsStop3066" stop-color="rgb(230, 147, 117)" stop-opacity="1" offset="1" /></linearGradient><linearGradient class="svga-on-canvas-chinshadow-gradient-single-0" id="SvgjsLinearGradient3137" gradientUnits="userSpaceOnUse" x1="100" y1="171" x2="100" y2="130"><stop id="SvgjsStop3138" stop-color="rgb(230, 147, 117)" stop-opacity="0.8" offset="0" /><stop id="SvgjsStop3139" stop-color="rgb(199, 99, 61)" stop-opacity="1" offset="0.7" /></linearGradient><radialGradient class="svga-on-canvas-backs-gradient-single-1" id="SvgjsRadialGradient3373" gradientUnits="userSpaceOnUse" cx="100" cy="225" r="250"><stop id="SvgjsStop3374" stop-color="rgb(236, 240, 241)" stop-opacity="0" offset="0" /><stop id="SvgjsStop3375" stop-color="rgb(198, 220, 226)" stop-opacity="1" offset="1" /></radialGradient></defs></svg>